<?xml version="1.0" encoding="utf-8"?>
<!-- Generator: Adobe Illustrator 26.0.2, SVG Export Plug-In . SVG Version: 6.00 Build 0)  -->
<svg version="1.1"
	 id="svg97" inkscape:export-filename="/home/jimmac/ximian_art/icons/nautilus/snowdunes/gnome-fs-directory-accept.png" inkscape:output_extension="org.inkscape.output.svg.inkscape" sodipodi:docname="document-open.svg" sodipodi:version="0.32" xmlns:cc="http://creativecommons.org/ns#" xmlns:dc="http://purl.org/dc/elements/1.1/" xmlns:inkscape="http://www.inkscape.org/namespaces/inkscape" xmlns:rdf="http://www.w3.org/1999/02/22-rdf-syntax-ns#" xmlns:sodipodi="http://sodipodi.sourceforge.net/DTD/sodipodi-0.dtd" xmlns:svg="http://www.w3.org/2000/svg"
	 xmlns="http://www.w3.org/2000/svg" xmlns:xlink="http://www.w3.org/1999/xlink" x="0px" y="0px" viewBox="0 0 48 48"
	 style="enable-background:new 0 0 48 48;" xml:space="preserve">
<style type="text/css">
	
		.st0{fill:url(#path2375_00000171693639572317822790000015334204490701926538_);stroke:#5A5A5A;stroke-linecap:round;stroke-linejoin:round;}
	
		.st1{opacity:0.1136;fill:#729FCF;stroke:#000000;stroke-width:1;stroke-linecap:round;stroke-linejoin:round;enable-background:new    ;}
	.st2{opacity:0.4021;fill:url(#rect4173_00000167397511327452707380000001879702921303757700_);enable-background:new    ;}
	.st3{opacity:0.4021;fill:url(#path5058_00000042018253704891063010000009873893470869962912_);enable-background:new    ;}
	.st4{opacity:0.4021;fill:url(#path5018_00000171703341529529021300000009484568967466448792_);enable-background:new    ;}
	.st5{fill:url(#path2380_00000113346128331466403190000003081355643079208095_);}
	.st6{fill:#FFFFFF;fill-opacity:0.5803;}
	.st7{opacity:0.1136;fill:#729FCF;stroke:#000000;stroke-linecap:round;stroke-linejoin:round;enable-background:new    ;}
	.st8{opacity:0.392;fill:url(#path13840_00000067914342544006938080000015168392421031246225_);enable-background:new    ;}
	
		.st9{fill:url(#path8230_00000073679061356085570670000005304505259361816207_);stroke:url(#path8230_00000043449342670879658960000015070187941497693090_);}
	.st10{fill:none;stroke:#A1A1A1;}
	
		.st11{fill:url(#path2401_00000109018069404823950210000003943283275429879967_);stroke:#3465A4;stroke-width:1;stroke-linejoin:round;}
	.st12{fill-rule:evenodd;clip-rule:evenodd;fill:url(#path323_00000109747604877270647120000000492658436950246841_);}
	.st13{fill:none;stroke:#A1A1A1;stroke-width:1;}
	
		.st14{opacity:0.5227;fill:none;stroke:url(#path324_00000080169742360922847410000000782117113586004911_);stroke-linecap:round;enable-background:new    ;}
	.st15{fill:#FFFFFF;}
	.st16{opacity:0.1082;fill:url(#path1361_00000135655868400493634790000012231498639881256608_);enable-background:new    ;}
	.st17{fill:#7585D0;stroke:#3445A4;stroke-width:1;}
	
		.st18{opacity:0.4086;fill:url(#path7076_00000051374539640063099070000003053054091158845358_);stroke:url(#path7076_00000022551511565908378640000003500632133382479795_);stroke-width:1;enable-background:new    ;}
	.st19{opacity:0.3118;fill-rule:evenodd;clip-rule:evenodd;fill:#FFFFFF;enable-background:new    ;}
</style>
<defs>
	
		<inkscape:perspective  id="perspective90" inkscape:persp3d-origin="24 : 16 : 1" inkscape:vp_x="0 : 24 : 1" inkscape:vp_y="0 : 1000 : 0" inkscape:vp_z="48 : 24 : 1" sodipodi:type="inkscape:persp3d">
		</inkscape:perspective>
</defs>
<sodipodi:namedview  bordercolor="#666666" borderopacity="1.0" id="base" inkscape:current-layer="layer3" inkscape:cx="-123.73861" inkscape:cy="37.388301" inkscape:document-units="px" inkscape:grid-bbox="true" inkscape:pageopacity="0.0" inkscape:pageshadow="2" inkscape:showpageshadow="false" inkscape:window-height="818" inkscape:window-width="1027" inkscape:window-x="407" inkscape:window-y="30" inkscape:zoom="1" pagecolor="#ffffff" showgrid="false">
	</sodipodi:namedview>
<g id="layer1" inkscape:groupmode="layer" inkscape:label="Folder">
</g>
<g id="layer3" inkscape:groupmode="layer" inkscape:label="Open">
	
		<radialGradient id="path2375_00000162311867921136313560000000513055396508346013_" cx="-23.0138" cy="16.448" r="26.3273" gradientTransform="matrix(1.0156 0 -0.1031 -1.0005 50.1387 48.0339)" gradientUnits="userSpaceOnUse">
		<stop  offset="0" style="stop-color:#A0A0A0"/>
		<stop  offset="1" style="stop-color:#A8A8A8"/>
	</radialGradient>
	
		<path id="path2375" sodipodi:nodetypes="ccccccssssccc" style="fill:url(#path2375_00000162311867921136313560000000513055396508346013_);stroke:#5A5A5A;stroke-linecap:round;stroke-linejoin:round;" d="
		M4,32c0,0.3,0.4,0.7,0.7,0.7h25.4c0.3,0,0.6-0.3,0.6-0.7L28.5,9.9c0-0.3-0.4-0.7-0.7-0.7H17.4c-0.5,0-1-0.3-1.1-0.8l-0.9-2.7
		c-0.1-0.4-0.4-0.6-1.1-0.6H2.1c-0.3,0-0.6,0.3-0.6,0.7L4,32z"/>
	<path id="path13113" sodipodi:nodetypes="cc" class="st1" d="M2.9,14.8h25.4"/>
	<path id="path13160" sodipodi:nodetypes="cc" class="st1" d="M4.6,31.1H29"/>
	<path id="path13139" sodipodi:nodetypes="cc" class="st1" d="M4.6,29.5H29"/>
	<g id="g5022" transform="matrix(2.165152e-2,0,0,1.903841e-2,42.41538,36.93372)">
		
			<linearGradient id="rect4173_00000000202304041911137810000014785337230836245438_" gradientUnits="userSpaceOnUse" x1="208915.5156" y1="-545777.9375" x2="208915.5156" y2="-545976.125" gradientTransform="matrix(6.006974e-02 0 0 -3.750007e-02 -13625.6064 -20922.3633)">
			<stop  offset="0" style="stop-color:#000000;stop-opacity:0"/>
			<stop  offset="0.5" style="stop-color:#000000"/>
			<stop  offset="1" style="stop-color:#000000;stop-opacity:0"/>
		</linearGradient>
		
			<rect id="rect4173" x="-1622.7" y="-455.7" style="opacity:0.4021;fill:url(#rect4173_00000000202304041911137810000014785337230836245438_);enable-background:new    ;" width="1093.3" height="390.4"/>
		
			<radialGradient id="path5058_00000134968864939210435990000001135775872334972804_" cx="218121.4219" cy="-550922" r="95.6007" gradientTransform="matrix(6.006974e-02 0 0 -3.750007e-02 -13625.0605 -20922.3633)" gradientUnits="userSpaceOnUse">
			<stop  offset="0" style="stop-color:#000000"/>
			<stop  offset="1" style="stop-color:#000000;stop-opacity:0"/>
		</radialGradient>
		
			<path id="path5058" sodipodi:nodetypes="cccc" style="opacity:0.4021;fill:url(#path5058_00000134968864939210435990000001135775872334972804_);enable-background:new    ;" d="
			M-529.5-455.6v390.4c116.6,0.7,281.9-87.5,281.9-195.2C-247.6-368.2-377.7-455.6-529.5-455.6z"/>
		
			<radialGradient id="path5018_00000011714460922763162310000002469797402843006082_" cx="-195459.3594" cy="-550922" r="95.6007" gradientTransform="matrix(-6.006974e-02 0 0 -3.750007e-02 -13370.8408 -20922.3633)" gradientUnits="userSpaceOnUse">
			<stop  offset="0" style="stop-color:#000000"/>
			<stop  offset="1" style="stop-color:#000000;stop-opacity:0"/>
		</radialGradient>
		
			<path id="path5018" sodipodi:nodetypes="cccc" style="opacity:0.4021;fill:url(#path5018_00000011714460922763162310000002469797402843006082_);enable-background:new    ;" d="
			M-1622.7-455.6v390.4c-116.6,0.7-281.9-87.5-281.9-195.2S-1774.5-455.6-1622.7-455.6z"/>
	</g>
	
		<linearGradient id="path2380_00000014616459292983583570000001462908152509149846_" gradientUnits="userSpaceOnUse" x1="-109.3912" y1="-151.7557" x2="-106.9866" y2="-179.4216" gradientTransform="matrix(1.4627 0 -6.907908e-02 -0.6837 157.0486 -92.8426)">
		<stop  offset="0" style="stop-color:#FFFFFF;stop-opacity:0.7006"/>
		<stop  offset="1" style="stop-color:#FFFFFF;stop-opacity:0"/>
	</linearGradient>
	
		<path id="path2380" sodipodi:nodetypes="ccccccsscsscccc" style="fill:url(#path2380_00000014616459292983583570000001462908152509149846_);" d="
		M5.3,31.8c0,0.3-0.1,0.4-0.4,0.3l0,0c-0.3-0.1-0.4-0.3-0.5-0.5L1.9,6c0-0.3,0.1-0.4,0.4-0.4l12-0.1c0.4,0,0.6,0,0.7,0.4
		c0,0,0.9,2.5,1,3l-1.3-2.4c-0.2-0.4-0.5-0.3-0.8-0.3H3.3C3,6.3,2.9,6.5,2.9,6.7L5.3,31.8L5.3,31.8z"/>
	<path id="path13145" sodipodi:nodetypes="cc" class="st1" d="M2.1,6.6h12.1"/>
	<path id="path13115" sodipodi:nodetypes="cc" class="st1" d="M2.5,9.9h25.1"/>
	
		<g id="g2381" transform="matrix(1.034424,0.000000,0.104520,1.034424,-10.03248,2.631914)" inkscape:export-filename="/home/jimmac/ximian_art/icons/nautilus/suse93/gnome-fs-directory.png" inkscape:export-xdpi="74.800003" inkscape:export-ydpi="74.800003">
		<path id="path2382" sodipodi:nodetypes="cscscs" class="st6" d="M36.1,7.4c0-0.4,0-0.6-0.3-0.6l-10.2,0c-0.2,0-0.3-0.1,0,0
			c0.3,0.1,1,0.5,1.8,0.6C27.3,7.3,36.1,7.4,36.1,7.4z"/>
	</g>
	<path id="path13123" sodipodi:nodetypes="cc" class="st1" d="M2.8,13.1H28"/>
	<path id="path13121" sodipodi:nodetypes="cc" class="st1" d="M4.4,27.8h24.5"/>
	<path id="path13119" sodipodi:nodetypes="cc" class="st1" d="M4.2,26.2h24.6"/>
	<path id="path13135" sodipodi:nodetypes="cc" class="st1" d="M4,24.6h24.6"/>
	<path id="path13137" sodipodi:nodetypes="cc" class="st1" d="M3.9,22.9h24.6"/>
	<path id="path13143" sodipodi:nodetypes="cc" class="st7" d="M3.7,21.3h24.7"/>
	<path id="path13133" sodipodi:nodetypes="cc" class="st1" d="M3.5,19.7h24.7"/>
	<path id="path13117" sodipodi:nodetypes="cc" class="st1" d="M3.4,18h24.7"/>
	
		<g id="g1853" transform="matrix(1.034424,0,0.10452,1.034424,-10.03248,2.631914)" inkscape:export-filename="/home/jimmac/ximian_art/icons/nautilus/suse93/gnome-fs-directory.png" inkscape:export-xdpi="74.800003" inkscape:export-ydpi="74.800003">
		<path id="path1855" sodipodi:nodetypes="cscscs" class="st6" d="M36.1,7.4c0-0.4,0-0.6-0.3-0.6l-10.2,0c-0.2,0-0.3-0.1,0,0
			c0.3,0.1,1,0.5,1.8,0.6C27.3,7.3,36.1,7.4,36.1,7.4z"/>
	</g>
	<path id="path13127" sodipodi:nodetypes="cc" class="st1" d="M2.6,11.5H28"/>
	<path id="path13125" sodipodi:nodetypes="cc" class="st1" d="M3.2,16.4h24.7"/>
	<path id="path13147" sodipodi:nodetypes="cc" class="st1" d="M2.3,8.2h12.5"/>
	
		<linearGradient id="path13840_00000085230396775985075040000011289260442683151757_" gradientUnits="userSpaceOnUse" x1="17.6975" y1="16.6508" x2="15.6573" y2="35.2172" gradientTransform="matrix(1 0 0 -1 0 47.8898)">
		<stop  offset="0" style="stop-color:#000000"/>
		<stop  offset="1" style="stop-color:#000000;stop-opacity:0"/>
	</linearGradient>
	
		<path id="path13840" sodipodi:nodetypes="cccsc" style="opacity:0.392;fill:url(#path13840_00000085230396775985075040000011289260442683151757_);enable-background:new    ;" d="
		M28.3,12l2.1,20.1L5.1,32.2L3.6,12C3.6,12,28.4,12,28.3,12z"/>
	
		<linearGradient id="path8230_00000149360025689942545720000005618267342435538056_" gradientUnits="userSpaceOnUse" x1="20.4573" y1="114.2358" x2="19.9472" y2="97.7097" gradientTransform="matrix(1 0 0 -1.2388 0 146.2516)">
		<stop  offset="0" style="stop-color:#FAFAFA"/>
		<stop  offset="0.5" style="stop-color:#A8A8A8"/>
		<stop  offset="1" style="stop-color:#CDCDCD"/>
	</linearGradient>
	
		<radialGradient id="path8230_00000017511881342203722250000016954176362736559019_" cx="8.0795" cy="59.2887" r="31.0282" gradientTransform="matrix(0.9683 0 0 -1.0467 35.7031 51.6528)" gradientUnits="userSpaceOnUse">
		<stop  offset="0" style="stop-color:#A3A3A3"/>
		<stop  offset="1" style="stop-color:#4C4C4C"/>
	</radialGradient>
	
		<path id="path8230" sodipodi:nodetypes="ccccc" style="fill:url(#path8230_00000149360025689942545720000005618267342435538056_);stroke:url(#path8230_00000017511881342203722250000016954176362736559019_);" d="
		M35.6,2.5c0.4,13.8-7.4,15.1-4.9,23.7L5,26.9C3.5,16.4,11.8,9.6,9.4,2.6L35.6,2.5z"/>
	<path id="path8277" sodipodi:nodetypes="cc" class="st10" d="M12.8,5.8H32"/>
	
		<linearGradient id="path2401_00000106826404684346214560000013717051667545159080_" gradientUnits="userSpaceOnUse" x1="-30.1349" y1="24.7366" x2="-30.2252" y2="28.7661" gradientTransform="matrix(1 0 0 -1.0221 52.0569 56.4069)">
		<stop  offset="0" style="stop-color:#6194CB"/>
		<stop  offset="1" style="stop-color:#729FCF"/>
	</linearGradient>
	
		<path id="path2401" inkscape:export-filename="/home/jimmac/ximian_art/icons/nautilus/suse93/gnome-fs-directory.png" inkscape:export-xdpi="74.800003" inkscape:export-ydpi="74.800003" sodipodi:nodetypes="cccsscccscc" style="fill:url(#path2401_00000106826404684346214560000013717051667545159080_);stroke:#3465A4;stroke-width:1;stroke-linejoin:round;" d="
		M4.9,32.3c0.1,0.2,0.3,0.3,0.5,0.3h27.2c0.2,0,0.4-0.1,0.6-0.2c0.4-0.3,0.5-0.5,0.7-0.8c2-3,4.7-15.7,4.7-15.7
		c0.1-0.2-0.1-0.3-0.3-0.3H9.8c-0.3,0-1.4,13.1-4,15.7L4.9,32.3L4.9,32.3z"/>
	<path id="path8279" sodipodi:nodetypes="cc" class="st10" d="M12.7,7.4h16.1"/>
	
		<linearGradient id="path323_00000085958093521794030040000010917088290086902689_" gradientUnits="userSpaceOnUse" x1="-86.2061" y1="-188.2588" x2="-79.8273" y2="-200.3186" gradientTransform="matrix(1.5353 0 0 -0.6513 149.588 -104.7779)">
		<stop  offset="0" style="stop-color:#FFFFFF;stop-opacity:0.134"/>
		<stop  offset="1" style="stop-color:#FFFFFF;stop-opacity:5.154639e-02"/>
	</linearGradient>
	
		<path id="path323" sodipodi:nodetypes="ccccc" style="fill-rule:evenodd;clip-rule:evenodd;fill:url(#path323_00000085958093521794030040000010917088290086902689_);" d="
		M10.9,16.9c-0.6,4.1-1.2,7.4-2.2,11c1.9-0.6,5.8-2.6,14-2.6s13.6-7.5,14.4-8.4L10.9,16.9z"/>
	<path id="path8281" sodipodi:nodetypes="cc" class="st13" d="M12.6,9.1h19.8"/>
	
		<linearGradient id="path324_00000096749694401987119430000004644513332898606002_" gradientUnits="userSpaceOnUse" x1="-65.6531" y1="-143.6593" x2="-65.3973" y2="-162.5592" gradientTransform="matrix(1.4215 0 0 -0.7035 115.0796 -84.036)">
		<stop  offset="0" style="stop-color:#FFFFFF"/>
		<stop  offset="1" style="stop-color:#FFFFFF;stop-opacity:0"/>
	</linearGradient>
	
		<path id="path324" sodipodi:nodetypes="cccsc" style="opacity:0.5227;fill:none;stroke:url(#path324_00000096749694401987119430000004644513332898606002_);stroke-linecap:round;enable-background:new    ;" d="
		M37.6,16.5H10.5c0,0-1.8,13.1-3.9,14.9c6.6,0,25.8,0,25.8,0C33.9,31.4,36.5,21.1,37.6,16.5z"/>
	<path id="path8283" sodipodi:nodetypes="cc" class="st13" d="M12,10.7h19.5"/>
	<path id="path8285" sodipodi:nodetypes="cc" class="st13" d="M11.3,12.3h19.1"/>
	<path id="path8287" sodipodi:nodetypes="cc" class="st13" d="M10.4,14h15.2"/>
	<path id="path8289" sodipodi:nodetypes="ccccc" class="st15" d="M5.4,26.4c-1-10,5.9-15.6,4.6-23.5h25.2L10.7,3.4
		C11.7,11.2,5.7,15.4,5.4,26.4z"/>
</g>
<g id="layer2" inkscape:groupmode="layer" inkscape:label="pattern">
</g>
<g id="layer1_00000084497526020421301260000017966879467555746695_" inkscape:groupmode="layer" inkscape:label="Layer 1">
	
		<radialGradient id="path1361_00000011719994191246326070000016514765215905598382_" cx="-39.9875" cy="-535.7407" r="7.0338" gradientTransform="matrix(1.4184 2.503119e-02 1.273728e-02 -0.4226 99.571 -180.8578)" gradientUnits="userSpaceOnUse">
		<stop  offset="0" style="stop-color:#000000"/>
		<stop  offset="1" style="stop-color:#000000;stop-opacity:0"/>
	</radialGradient>
	
		<path id="path1361" sodipodi:cx="22.958872" sodipodi:cy="34.94062" sodipodi:rx="10.31934" sodipodi:ry="2.320194" sodipodi:type="arc" style="opacity:0.1082;fill:url(#path1361_00000011719994191246326070000016514765215905598382_);enable-background:new    ;" d="
		M46.8,44.5c0,1.7-4.9,3.1-10.9,3.1S25,46.2,25,44.5c0-1.7,4.9-3.1,10.9-3.1S46.8,42.7,46.8,44.5L46.8,44.5z"/>
	<path id="text1314" sodipodi:nodetypes="ccccccccccccc" class="st17" d="M38.9,45.1v-6.2l6.8,0v-4.8h-6.8l0-6.8l-4.8,0l0,6.8
		l-6.8,0.1l0,4.7l6.8,0l0,6.2L38.9,45.1z"/>
	
		<linearGradient id="path7076_00000065763983800919835800000015149348678094483374_" gradientUnits="userSpaceOnUse" x1="51.6068" y1="1.0018" x2="59.1223" y2="-7.2628" gradientTransform="matrix(1 0 0 -1 -18.0179 34.3186)">
		<stop  offset="0" style="stop-color:#7283CF"/>
		<stop  offset="1" style="stop-color:#5163D6"/>
	</linearGradient>
	
		<linearGradient id="path7076_00000100361903419065215450000012453282467114119582_" gradientUnits="userSpaceOnUse" x1="33.5073" y1="14.6611" x2="41.2421" y2="6.1553" gradientTransform="matrix(1 0 0 -1 0 47.8898)">
		<stop  offset="0" style="stop-color:#FFFFFF"/>
		<stop  offset="1" style="stop-color:#FFFFFF;stop-opacity:0.3402"/>
	</linearGradient>
	
		<path id="path7076" sodipodi:nodetypes="ccccccccccccc" style="opacity:0.4086;fill:url(#path7076_00000065763983800919835800000015149348678094483374_);stroke:url(#path7076_00000100361903419065215450000012453282467114119582_);stroke-width:1;enable-background:new    ;" d="
		M38.2,44.4v-6.2H45l0-3.4h-6.8V28l-3.4,0l0,6.8l-6.8,0l0,3.4l6.9,0l0,6.2L38.2,44.4z"/>
	<path id="path7914" sodipodi:nodetypes="ccccccccc" class="st19" d="M27.7,36.5c0,1.3,17.7-0.7,17.7,0v-2l-6.8,0v-6.8h-4.1v6.8
		h-6.8V36.5z"/>
</g>
</svg>
