<?xml version="1.0" encoding="utf-8"?>
<!-- Generator: Adobe Illustrator 26.0.2, SVG Export Plug-In . SVG Version: 6.00 Build 0)  -->
<svg version="1.1" id="Layer_1" xmlns="http://www.w3.org/2000/svg" xmlns:xlink="http://www.w3.org/1999/xlink" x="0px" y="0px"
	 viewBox="0 0 185.6 185.6" style="enable-background:new 0 0 185.6 185.6;" xml:space="preserve">
<style type="text/css">
	.st0{fill:#FFFFFF;}
	.st1{fill:#6CBE45;}
</style>
<g>
	<g>
		<path class="st0" d="M185.6,185.6c-61.9,0-123.7,0-185.6,0C0,123.7,0,61.8,0,0c61.9,0,123.7,0,185.6,0
			C185.6,61.9,185.6,123.7,185.6,185.6z M7.4,91.1c0,25.6,0,51.3,0,76.9c0,6.9,2.4,9.4,9.2,9.4c51.3,0,102.5,0,153.8,0
			c6.7,0,9.2-2.5,9.2-9c0-51.4,0-102.8,0-154.2c0-6.5-2.6-9-9.2-9c-51.3,0-102.5,0-153.8,0c-6.8,0-9.2,2.5-9.2,9.4
			C7.4,40.1,7.4,65.6,7.4,91.1z"/>
		<path d="M7.4,91.1c0-25.5,0-51,0-76.5c0-6.9,2.4-9.4,9.2-9.4c51.3,0,102.5,0,153.8,0c6.7,0,9.2,2.5,9.2,9c0,51.4,0,102.8,0,154.2
			c0,6.5-2.6,9-9.2,9c-51.3,0-102.5,0-153.8,0c-6.8,0-9.2-2.5-9.2-9.4C7.4,142.4,7.4,116.8,7.4,91.1z M13.6,47.4
			c-0.1,1.2-0.1,2-0.1,2.9c0,39.1,0,78.1-0.1,117.2c0,3.6,1.7,3.9,4.5,3.9c50.4-0.1,100.8-0.1,151.2,0c3.7,0,4.5-1.2,4.5-4.7
			c-0.1-38.4-0.1-76.9-0.1-115.3c0-1.3,0-2.6,0-4C120,47.4,67,47.4,13.6,47.4z"/>
		<path class="st0" d="M13.6,47.4c53.4,0,106.4,0,160,0c0,1.4,0,2.7,0,4c0,38.4,0,76.9,0.1,115.3c0,3.5-0.8,4.7-4.5,4.7
			c-50.4-0.1-100.8-0.1-151.2,0c-2.9,0-4.5-0.3-4.5-3.9c0.1-39.1,0.1-78.1,0.1-117.2C13.5,49.4,13.6,48.6,13.6,47.4z"/>
	</g>
</g>
<g>
	<g>
		<path class="st0" d="M92.7,152.9c-19,0-38.1-0.1-57.1,0.1c-2.3,0-2.6-0.6-2.6-2.7c0.1-26.9,0.1-53.9,0-80.8c0-2.3,0.6-2.6,2.7-2.6
			c38.1,0.1,76.1,0.1,114.2,0c2.3,0,2.6,0.6,2.6,2.7c-0.1,26.9-0.1,53.9,0,80.8c0,2.3-0.6,2.6-2.7,2.6
			C130.8,152.9,111.8,152.9,92.7,152.9z"/>
		<path class="st1" d="M79.8,144.8c-2.9,0-5.2-1.3-7.2-3.3c-9.1-9.3-17.9-18.8-27.6-27.5c-2.4-2.2-3.2-5.3-3.2-8.3
			c-0.1-4.8,6.1-7.6,10.9-5c2.5,1.3,4.6,3.3,6.6,5.3c6,5.9,12.2,11.8,17.9,18c2.4,2.6,3.5,2,5.4-0.3c15.5-18.6,33.4-34.4,54.3-46.8
			c0.9-0.6,1.9-1.2,2.9-1.6c4.1-1.8,8.3-0.5,10.3,2.9c1.9,3.3,1.1,7.5-2.4,10.1c-2.3,1.8-4.9,3.2-7.4,4.8
			c-17.6,11.1-32.6,25-46,40.8c-2.3,2.7-4.7,5.3-7.2,7.8C85.1,143.7,82.6,144.8,79.8,144.8z"/>
	</g>
</g>
</svg>
