<?xml version="1.0" encoding="utf-8"?>
<!-- Generator: Adobe Illustrator 26.0.2, SVG Export Plug-In . SVG Version: 6.00 Build 0)  -->
<svg version="1.1"
	 id="svg2913" inkscape:output_extension="org.inkscape.output.svg.inkscape" sodipodi:docname="document-save.svg" sodipodi:version="0.32" xmlns:cc="http://creativecommons.org/ns#" xmlns:dc="http://purl.org/dc/elements/1.1/" xmlns:inkscape="http://www.inkscape.org/namespaces/inkscape" xmlns:rdf="http://www.w3.org/1999/02/22-rdf-syntax-ns#" xmlns:sodipodi="http://sodipodi.sourceforge.net/DTD/sodipodi-0.dtd" xmlns:svg="http://www.w3.org/2000/svg"
	 xmlns="http://www.w3.org/2000/svg" xmlns:xlink="http://www.w3.org/1999/xlink" x="0px" y="0px" viewBox="0 0 48 48"
	 style="enable-background:new 0 0 48 48;" xml:space="preserve">
<style type="text/css">
	.st0{opacity:0.4021;fill:url(#rect4173_00000057142264338737546330000001613074567889631679_);enable-background:new    ;}
	.st1{opacity:0.4021;fill:url(#path5058_00000139284230167258600130000008775329798351702400_);enable-background:new    ;}
	.st2{opacity:0.4021;fill:url(#path5018_00000139266681467911689910000005885634273613755531_);enable-background:new    ;}
	.st3{fill:none;stroke:#535353;stroke-width:2;stroke-linecap:round;stroke-linejoin:round;}
	.st4{fill-rule:evenodd;clip-rule:evenodd;fill:url(#path4170_00000065074576475900585460000012783432774299496115_);}
	.st5{fill-rule:evenodd;clip-rule:evenodd;fill:url(#path3093_00000180356109266642835370000008125104130225403547_);}
	.st6{fill-rule:evenodd;clip-rule:evenodd;fill:url(#rect4174_00000071519014525893620460000014701088414777776570_);}
	
		.st7{opacity:0.8114;fill-rule:evenodd;clip-rule:evenodd;fill:url(#path4194_00000055697408533804976370000012941910060444384147_);enable-background:new    ;}
	.st8{fill-rule:evenodd;clip-rule:evenodd;fill:#FFFFFF;}
	
		.st9{opacity:0.6914;fill-rule:evenodd;clip-rule:evenodd;fill:url(#path4211_00000134952677292937254950000007445154986444644773_);enable-background:new    ;}
	.st10{fill-rule:evenodd;clip-rule:evenodd;fill:#FFFFFF;fill-opacity:0.4576;}
	
		.st11{fill:none;stroke:url(#path4252_00000035496739923632779620000017061617370142770610_);stroke-linecap:round;stroke-linejoin:round;}
	.st12{fill:none;stroke:#FFFFFF;stroke-linecap:square;stroke-opacity:0.4237;}
	.st13{opacity:9.714284e-02;fill:none;stroke:#000000;stroke-linecap:square;enable-background:new    ;}
	.st14{opacity:0.44;fill-rule:evenodd;clip-rule:evenodd;fill:#FFFFFF;enable-background:new    ;}
	
		.st15{opacity:0.2057;fill-rule:evenodd;clip-rule:evenodd;fill:url(#path2545_00000116214818031717216620000005888191642083104684_);enable-background:new    ;}
	
		.st16{opacity:0.1412;fill-rule:evenodd;clip-rule:evenodd;fill:url(#path8660_00000019661239507867733030000008860641614128647298_);enable-background:new    ;}
	
		.st17{fill:url(#path1432_00000087379870228012246730000003186417285671445179_);stroke:url(#path1432_00000069363484960917287420000000780197359142807465_);}
	
		.st18{opacity:0.4716;fill:none;stroke:url(#path2177_00000057136016869635712520000009679697977170192796_);stroke-miterlimit:10;enable-background:new    ;}
	.st19{opacity:0.4943;fill:url(#path4989_00000132775779365076388080000007256709476473821087_);enable-background:new    ;}
	.st20{fill:#FFFFFF;stroke:#000000;stroke-width:0.502;stroke-linecap:round;stroke-linejoin:round;stroke-miterlimit:1.8799;}
	
		.st21{fill-rule:evenodd;clip-rule:evenodd;fill:#8282FF;stroke:#000000;stroke-width:0.47;stroke-linecap:round;stroke-linejoin:round;stroke-miterlimit:1.8799;}
	.st22{fill-rule:evenodd;clip-rule:evenodd;}
	
		.st23{fill-rule:evenodd;clip-rule:evenodd;fill:#FFFFFF;stroke:#000000;stroke-width:0.47;stroke-linecap:round;stroke-linejoin:round;stroke-miterlimit:1.8799;}
</style>
<defs>
	
		<inkscape:perspective  id="perspective104" inkscape:persp3d-origin="24 : 16 : 1" inkscape:vp_x="0 : 24 : 1" inkscape:vp_y="0 : 1000 : 0" inkscape:vp_z="48 : 24 : 1" sodipodi:type="inkscape:persp3d">
		</inkscape:perspective>
</defs>
<sodipodi:namedview  bordercolor="#666666" borderopacity="0.22745098" fill="#3465a4" id="base" inkscape:current-layer="layer2" inkscape:cx="-133.68151" inkscape:cy="11.891468" inkscape:document-units="px" inkscape:grid-bbox="true" inkscape:pageopacity="0.0" inkscape:pageshadow="2" inkscape:showpageshadow="false" inkscape:window-height="818" inkscape:window-width="999" inkscape:window-x="0" inkscape:window-y="30" inkscape:zoom="1" pagecolor="#ffffff" showgrid="false" stroke="#204a87">
	</sodipodi:namedview>
<g>
	<g id="layer2" inkscape:groupmode="layer" inkscape:label="pix">
		<g id="g5022" transform="matrix(2.411405e-2,0,0,1.929202e-2,45.48953,41.75228)">
			
				<linearGradient id="rect4173_00000099660398504567475620000005517621030134571926_" gradientUnits="userSpaceOnUse" x1="-680724.1875" y1="-1847.0353" x2="-680724.1875" y2="-1821.173" gradientTransform="matrix(1.613272e-03 0 0 7.330892e-04 -23629.7324 -41251.1172)">
				<stop  offset="0" style="stop-color:#000000;stop-opacity:0"/>
				<stop  offset="0.5" style="stop-color:#000000"/>
				<stop  offset="1" style="stop-color:#000000;stop-opacity:0"/>
			</linearGradient>
			
				<rect id="rect4173" x="-1628.1" y="-521.6" style="opacity:0.4021;fill:url(#rect4173_00000099660398504567475620000005517621030134571926_);enable-background:new    ;" width="1072.5" height="383"/>
			
				<radialGradient id="path5058_00000101072917737390849590000008634237640323915922_" cx="-417.3509" cy="-330.0982" r="3.5187" gradientTransform="matrix(1.613272e-03 0 0 7.330892e-04 -23629.1875 -41251.1172)" gradientUnits="userSpaceOnUse">
				<stop  offset="0" style="stop-color:#000000"/>
				<stop  offset="1" style="stop-color:#000000;stop-opacity:0"/>
			</radialGradient>
			
				<path id="path5058" sodipodi:nodetypes="cccc" style="opacity:0.4021;fill:url(#path5058_00000101072917737390849590000008634237640323915922_);enable-background:new    ;" d="
				M-555.6-521.6v383c114.4,0.7,276.5-85.8,276.5-191.5C-279.1-435.8-406.7-521.6-555.6-521.6z"/>
			
				<radialGradient id="path5018_00000016052617000351822040000014895238303003310488_" cx="-1766.3536" cy="-330.0982" r="3.5187" gradientTransform="matrix(-1.613272e-03 0 0 7.330892e-04 -23434.6348 -41251.1172)" gradientUnits="userSpaceOnUse">
				<stop  offset="0" style="stop-color:#000000"/>
				<stop  offset="1" style="stop-color:#000000;stop-opacity:0"/>
			</radialGradient>
			
				<path id="path5018" sodipodi:nodetypes="cccc" style="opacity:0.4021;fill:url(#path5018_00000016052617000351822040000014895238303003310488_);enable-background:new    ;" d="
				M-1628.1-521.6v383c-114.4,0.7-276.5-85.8-276.5-191.5S-1777-521.6-1628.1-521.6z"/>
		</g>
		<path id="path4196" sodipodi:nodetypes="cccsccccccccc" class="st3" d="M8.9,11.1c-0.5,0-0.8,0.2-1,0.7L2.7,25.5
			c0,0-0.2,0.5-0.2,1.4v7.7c0,0.9,0.5,1.3,1.3,1.3h30.9c0.8,0,1.3-0.6,1.3-1.5v-7.7c0,0,0.1-0.6-0.1-1.1l-5.4-13.8
			C30.4,11.4,30,11,29.6,11H8.9V11.1z"/>
		
			<linearGradient id="path4170_00000021100038534198727670000008044618276669581757_" gradientUnits="userSpaceOnUse" x1="6.8968" y1="814.3156" x2="29.7766" y2="824.2932" gradientTransform="matrix(1 0 0 1 0 -788.875)">
			<stop  offset="0" style="stop-color:#BBBBBB"/>
			<stop  offset="1" style="stop-color:#9F9F9F"/>
		</linearGradient>
		
			<path id="path4170" sodipodi:nodetypes="ccccccccc" style="fill-rule:evenodd;clip-rule:evenodd;fill:url(#path4170_00000021100038534198727670000008044618276669581757_);" d="
			M2.5,26.3l0.6-0.6l30.1,0.1l2.8,0.3v8.4c0,0.9-0.5,1.5-1.3,1.5H3.9c-0.8,0-1.3-0.4-1.3-1.3v-8.4H2.5z"/>
		
			<radialGradient id="path3093_00000140732188125527294090000001674211838105268408_" cx="50.8414" cy="291.1364" r="16.7611" gradientTransform="matrix(1.2862 0.7817 -0.7108 1.1696 153.9303 -366.9655)" gradientUnits="userSpaceOnUse">
			<stop  offset="0" style="stop-color:#E4E4E4"/>
			<stop  offset="1" style="stop-color:#D3D3D3"/>
		</radialGradient>
		
			<path id="path3093" sodipodi:nodetypes="csccccccs" style="fill-rule:evenodd;clip-rule:evenodd;fill:url(#path3093_00000140732188125527294090000001674211838105268408_);" d="
			M2.8,25.4c-0.6,1.2,0,1.9,0.8,1.9h31.2c0.9,0,1.5-0.8,1.1-1.7l-5.4-13.8C30.4,11.4,30,11,29.6,11H9c-0.5,0-0.8,0.2-1,0.7L2.8,25.4
			z"/>
		
			<linearGradient id="rect4174_00000096025278154550031070000014582858131227608499_" gradientUnits="userSpaceOnUse" x1="5.4045" y1="822.1508" x2="19.5045" y2="822.1508" gradientTransform="matrix(1 0 0 1 0.7955 -790.2008)">
			<stop  offset="0" style="stop-color:#838383"/>
			<stop  offset="1" style="stop-color:#BBBBBB;stop-opacity:0"/>
		</linearGradient>
		
			<rect id="rect4174" x="6.2" y="29.7" style="fill-rule:evenodd;clip-rule:evenodd;fill:url(#rect4174_00000096025278154550031070000014582858131227608499_);" width="14.1" height="4.5"/>
		
			<linearGradient id="path4194_00000021108053407153487200000003616651930468558269_" gradientUnits="userSpaceOnUse" x1="11.4057" y1="823.3287" x2="11.3612" y2="820.569" gradientTransform="matrix(1 0 0 1 0 -788.875)">
			<stop  offset="0" style="stop-color:#EEEEEE"/>
			<stop  offset="1" style="stop-color:#EEEEEE;stop-opacity:0"/>
		</linearGradient>
		
			<path id="path4194" sodipodi:nodetypes="cscc" style="opacity:0.8114;fill-rule:evenodd;clip-rule:evenodd;fill:url(#path4194_00000021108053407153487200000003616651930468558269_);enable-background:new    ;" d="
			M6.2,34.1v-3.2c1.5,2.5,6.6,3.2,10.4,3.2H6.2z"/>
		<path id="path4201" sodipodi:nodetypes="cccccccc" class="st8" d="M35.8,25.2c0.1,1-0.3,1.9-1.1,1.9H4.2c-1,0-1.5-0.3-1.7-0.7
			c0.1,0.8,0.7,1.3,1.7,1.3h30.5C35.6,27.7,36.1,26.6,35.8,25.2L35.8,25.2z"/>
		
			<linearGradient id="path4211_00000109031647056863281790000012101434596844584591_" gradientUnits="userSpaceOnUse" x1="19.4" y1="802.6306" x2="19.4" y2="814.6701" gradientTransform="matrix(1 0 0 1 0 -788.875)">
			<stop  offset="0" style="stop-color:#FFFFFF;stop-opacity:0.2549"/>
			<stop  offset="1" style="stop-color:#FFFFFF"/>
		</linearGradient>
		
			<path id="path4211" style="opacity:0.6914;fill-rule:evenodd;clip-rule:evenodd;fill:url(#path4211_00000109031647056863281790000012101434596844584591_);enable-background:new    ;" d="
			M8.7,12.8c0,0.2-0.2,0.3-0.2,0.5c0,0.8,0.5,1.4,1.1,2.1c0.2-0.1,0.3-0.3,0.5-0.4C9.4,14.3,8.9,13.6,8.7,12.8z M30,12.8
			c-0.2,0.8-0.7,1.5-1.4,2.2c0.2,0.1,0.3,0.3,0.5,0.4c0.6-0.6,1.1-1.3,1.1-2.1C30.2,13.1,30.1,13,30,12.8z M31.8,19.6
			c-0.5,3.2-5.8,5.8-12.4,5.8S7.5,22.8,7,19.6c0,0.2-0.1,0.3-0.1,0.5c0,3.5,5.6,6.3,12.5,6.3s12.5-2.8,12.5-6.3
			C31.9,19.9,31.8,19.7,31.8,19.6z"/>
		
			<path id="path4224" sodipodi:cx="7.2036505" sodipodi:cy="25.593554" sodipodi:rx="1.3700194" sodipodi:ry="1.016466" sodipodi:type="arc" class="st10" d="
			M6.8,25.3c0,0.4-0.5,0.8-1.1,0.8s-1.1-0.4-1.1-0.8l0,0c0-0.4,0.5-0.8,1.1-0.8C6.4,24.5,6.8,24.9,6.8,25.3L6.8,25.3z"/>
		
			<path id="path4226" sodipodi:cx="7.2036505" sodipodi:cy="25.593554" sodipodi:rx="1.3700194" sodipodi:ry="1.016466" sodipodi:type="arc" class="st10" d="
			M34,25.3c0,0.4-0.5,0.8-1.1,0.8s-1.1-0.4-1.1-0.8l0,0c0-0.4,0.5-0.8,1.1-0.8C33.5,24.4,34,24.8,34,25.3L34,25.3z"/>
		
			<linearGradient id="path4252_00000020380791040633820290000008603642636605256842_" gradientUnits="userSpaceOnUse" x1="6.891" y1="799.136" x2="32.426" y2="833.905" gradientTransform="matrix(1 0 0 1 0 -788.875)">
			<stop  offset="0" style="stop-color:#FFFFFF"/>
			<stop  offset="1" style="stop-color:#FFFFFF;stop-opacity:0"/>
		</linearGradient>
		
			<path id="path4252" sodipodi:nodetypes="cccsccccccccc" style="fill:none;stroke:url(#path4252_00000020380791040633820290000008603642636605256842_);stroke-linecap:round;stroke-linejoin:round;" d="
			M9.2,11.4c-0.5,0-0.8,0.2-1,0.7L3.1,25.4c0,0-0.2,0.5-0.2,1.4v7.4c0,1.1,0.4,1.3,1.3,1.3h30.2c1.1,0,1.2-0.3,1.2-1.5v-7.4
			c0,0,0.1-0.6-0.1-1l-5.3-13.5c-0.1-0.4-0.4-0.7-0.8-0.7C29.4,11.4,9.2,11.4,9.2,11.4z"/>
		<path id="path4282" class="st12" d="M32.3,29.9v4"/>
		<path id="path4284" class="st12" d="M30.7,29.9v4"/>
		<path id="path4286" class="st12" d="M29.1,29.9v4"/>
		<path id="path4288" class="st12" d="M27.5,29.9v4"/>
		<path id="path4290" class="st12" d="M25.9,29.9v4"/>
		<path id="path4292" class="st12" d="M24.3,29.9v4"/>
		<path id="path4294" class="st13" d="M31.5,29.9v4"/>
		<path id="path4296" class="st13" d="M29.9,29.9v4"/>
		<path id="path4298" class="st13" d="M28.3,29.9v4"/>
		<path id="path4300" class="st13" d="M26.7,29.9v4"/>
		<path id="path4302" class="st13" d="M25.1,29.9v4"/>
		<path id="path4572" class="st14" d="M6.2,29.7v4.4h10.1l-9.8-0.3L6.2,29.7z"/>
		
			<linearGradient id="path2545_00000072999092961865826170000002226979080493656501_" gradientUnits="userSpaceOnUse" x1="6.3357" y1="774.5681" x2="-3.0179" y2="758.4088" gradientTransform="matrix(1.0378 0 0 1.0607 19.01 -790.9488)">
			<stop  offset="0" style="stop-color:#FFFFFF"/>
			<stop  offset="0.5" style="stop-color:#E6E6E6"/>
			<stop  offset="0.75" style="stop-color:#FFFFFF"/>
			<stop  offset="0.8417" style="stop-color:#E1E1E1"/>
			<stop  offset="1" style="stop-color:#FFFFFF"/>
		</linearGradient>
		
			<path id="path2545" sodipodi:cx="25" sodipodi:cy="19.5625" sodipodi:rx="14.875" sodipodi:ry="6.6875" sodipodi:type="arc" style="opacity:0.2057;fill-rule:evenodd;clip-rule:evenodd;fill:url(#path2545_00000072999092961865826170000002226979080493656501_);enable-background:new    ;" d="
			M31.7,19.6c0,3.1-5.5,5.7-12.4,5.7S7,22.8,7,19.6S12.6,14,19.4,14S31.7,16.5,31.7,19.6z"/>
	</g>
	<g id="layer1" inkscape:groupmode="layer" inkscape:label="down">
		
			<radialGradient id="path8660_00000169547619587061672950000004461615644613149868_" cx="-42.4007" cy="-1899.8325" r="12.5275" gradientTransform="matrix(1.1302 0 0 -0.4077 67.1767 -753.1492)" gradientUnits="userSpaceOnUse">
			<stop  offset="0" style="stop-color:#000000"/>
			<stop  offset="1" style="stop-color:#000000;stop-opacity:0"/>
		</radialGradient>
		
			<path id="path8660" sodipodi:cx="24.837126" sodipodi:cy="36.421127" sodipodi:rx="15.644737" sodipodi:ry="8.3968935" sodipodi:type="arc" style="opacity:0.1412;fill-rule:evenodd;clip-rule:evenodd;fill:url(#path8660_00000169547619587061672950000004461615644613149868_);enable-background:new    ;" d="
			M33.4,21.4c0-2.8-6.3-5.1-14.2-5.1C11.4,16.3,5,18.6,5,21.4l0,0c0,2.8,6.3,5.1,14.2,5.1S33.4,24.2,33.4,21.4L33.4,21.4z"/>
		
			<linearGradient id="path1432_00000039133977986748900040000011788422990135111305_" gradientUnits="userSpaceOnUse" x1="11.8266" y1="807.9917" x2="7.1381" y2="808.6922" gradientTransform="matrix(1 0 0 1 0 -794)">
			<stop  offset="0" style="stop-color:#3465A4"/>
			<stop  offset="1" style="stop-color:#3465A4;stop-opacity:0"/>
		</linearGradient>
		
			<linearGradient id="path1432_00000092442449786005888640000001283365206201088650_" gradientUnits="userSpaceOnUse" x1="10.2879" y1="810.1918" x2="6.0355" y2="812.5153" gradientTransform="matrix(1 0 0 1 0 -794)">
			<stop  offset="0" style="stop-color:#204A87"/>
			<stop  offset="1" style="stop-color:#204A87;stop-opacity:0"/>
		</linearGradient>
		
			<path id="path1432" sodipodi:nodetypes="ccccccc" style="fill:url(#path1432_00000039133977986748900040000011788422990135111305_);stroke:url(#path1432_00000092442449786005888640000001283365206201088650_);" d="
			M2.5,21.3c-0.8-25,20.4-21,20.3-8h5.9l-9.1,10.4L10,13.2h6C16.4,4.4,2.6,1.9,2.5,21.3z"/>
		
			<linearGradient id="path2177_00000141437660496568823190000004143059951886985382_" gradientUnits="userSpaceOnUse" x1="80.0912" y1="889.7631" x2="63.5785" y2="877.7958" gradientTransform="matrix(0.9141 0 0 0.9141 -50.7663 -796.7007)">
			<stop  offset="0" style="stop-color:#FFFFFF"/>
			<stop  offset="1" style="stop-color:#FFFFFF;stop-opacity:0"/>
		</linearGradient>
		
			<path id="path2177" sodipodi:nodetypes="ccccccc" style="opacity:0.4716;fill:none;stroke:url(#path2177_00000141437660496568823190000004143059951886985382_);stroke-miterlimit:10;enable-background:new    ;" d="
			M6,7.9c3.8-7.3,16.4-5.1,16.1,6h5.1l-7.7,8.8l-8.1-8.8h5.2C16.8,4.6,8.7,5,6,7.9z"/>
		
			<radialGradient id="path4989_00000161611892262072881250000002075084980401538213_" cx="-940.131" cy="597.4529" r="15.2614" gradientTransform="matrix(-1.3145 -1.006312e-02 -1.022964e-02 1.3362 -1217.4879 -804.395)" gradientUnits="userSpaceOnUse">
			<stop  offset="0" style="stop-color:#FFFFFF"/>
			<stop  offset="1" style="stop-color:#FFFFFF;stop-opacity:0"/>
		</radialGradient>
		
			<path id="path4989" sodipodi:nodetypes="cccccccc" style="opacity:0.4943;fill:url(#path4989_00000161611892262072881250000002075084980401538213_);enable-background:new    ;" d="
			M27.7,13.6l-1.6,2c-4.3-1.2-6.3,2.2-12.5,1.4l-3.1-3.5l5.8,0.1c0-9.5-9.7-8.9-12.3-2c3-11.9,18.3-10.3,18.6,2H27.7z"/>
	</g>
</g>
<g id="layer1_00000057111290771840011000000014295876794070832773_" transform="translate(-40.491333,-33.622234)" inkscape:groupmode="layer" inkscape:label="Layer 1">
	<g id="g2027">
		<g id="g1004" transform="matrix(0.4071837,0,0,0.4071837,62.371723,43.650069)">
			<ellipse id="path875" class="st20" cx="27.5" cy="62.5" rx="35.8" ry="16.7"/>
			<circle id="path878" class="st21" cx="27.5" cy="62.5" r="14.6"/>
			<circle id="path873" class="st22" cx="27.5" cy="62.5" r="6.8"/>
			<ellipse id="path880" class="st23" cx="28.9" cy="59.8" rx="2.1" ry="1.7"/>
		</g>
	</g>
</g>
</svg>
