<?xml version="1.0" encoding="utf-8"?>
<!-- Generator: Adobe Illustrator 26.0.2, SVG Export Plug-In . SVG Version: 6.00 Build 0)  -->
<svg version="1.1"
	 id="svg2913" inkscape:output_extension="org.inkscape.output.svg.inkscape" sodipodi:docname="document-save.svg" sodipodi:version="0.32" xmlns:cc="http://creativecommons.org/ns#" xmlns:dc="http://purl.org/dc/elements/1.1/" xmlns:inkscape="http://www.inkscape.org/namespaces/inkscape" xmlns:rdf="http://www.w3.org/1999/02/22-rdf-syntax-ns#" xmlns:sodipodi="http://sodipodi.sourceforge.net/DTD/sodipodi-0.dtd" xmlns:svg="http://www.w3.org/2000/svg"
	 xmlns="http://www.w3.org/2000/svg" xmlns:xlink="http://www.w3.org/1999/xlink" x="0px" y="0px" viewBox="0 0 48 48"
	 style="enable-background:new 0 0 48 48;" xml:space="preserve">
<style type="text/css">
	.st0{opacity:0.4021;fill:url(#rect4173_00000060006746749027162180000003210553858868902315_);enable-background:new    ;}
	.st1{opacity:0.4021;fill:url(#path5058_00000164490998954822494520000016570537730195761554_);enable-background:new    ;}
	.st2{opacity:0.4021;fill:url(#path5018_00000042737743692003989480000007726335590475971474_);enable-background:new    ;}
	.st3{fill:none;stroke:#535353;stroke-width:2;stroke-linecap:round;stroke-linejoin:round;}
	.st4{fill-rule:evenodd;clip-rule:evenodd;fill:url(#path4170_00000089563674817534092340000004614561563892376220_);}
	.st5{fill-rule:evenodd;clip-rule:evenodd;fill:url(#path3093_00000075161176178071447620000017776568393229783465_);}
	.st6{fill-rule:evenodd;clip-rule:evenodd;fill:url(#rect4174_00000181789498271731072480000012529993057085730205_);}
	
		.st7{opacity:0.8114;fill-rule:evenodd;clip-rule:evenodd;fill:url(#path4194_00000101792256123614825460000000254151198560639390_);enable-background:new    ;}
	.st8{fill-rule:evenodd;clip-rule:evenodd;fill:#FFFFFF;}
	
		.st9{opacity:0.6914;fill-rule:evenodd;clip-rule:evenodd;fill:url(#path4211_00000093896859760943826870000006682392347862322864_);enable-background:new    ;}
	.st10{fill-rule:evenodd;clip-rule:evenodd;fill:#FFFFFF;fill-opacity:0.4576;}
	
		.st11{fill:none;stroke:url(#path4252_00000106835572714334388580000009240368260975849359_);stroke-width:1;stroke-linecap:round;stroke-linejoin:round;}
	.st12{fill:none;stroke:#FFFFFF;stroke-width:1;stroke-linecap:square;stroke-opacity:0.4237;}
	.st13{opacity:9.714284e-02;fill:none;stroke:#000000;stroke-width:1;stroke-linecap:square;enable-background:new    ;}
	.st14{opacity:0.44;fill-rule:evenodd;clip-rule:evenodd;fill:#FFFFFF;enable-background:new    ;}
	
		.st15{opacity:0.2057;fill-rule:evenodd;clip-rule:evenodd;fill:url(#path2545_00000036247414675638013440000004197625802964346269_);enable-background:new    ;}
	
		.st16{opacity:0.1412;fill-rule:evenodd;clip-rule:evenodd;fill:url(#path8660_00000085957918031215212560000018237530665517787531_);enable-background:new    ;}
	
		.st17{fill:url(#path1432_00000153695349520881461270000016337365680686808708_);stroke:url(#path1432_00000018944391847682145710000004821125564257751969_);stroke-width:1;}
	
		.st18{opacity:0.4716;fill:none;stroke:url(#path2177_00000132067689288103740920000011000197230386998656_);stroke-width:1;stroke-miterlimit:10;enable-background:new    ;}
	.st19{opacity:0.4943;fill:url(#path4989_00000116925997779871732550000007921469911490987405_);enable-background:new    ;}
	.st20{opacity:0.4091;fill:url(#path3099_00000000189292860073898770000014605672655737676454_);enable-background:new    ;}
	.st21{fill:#F57900;stroke:#914900;stroke-width:0.9821;stroke-linecap:round;stroke-linejoin:round;}
	.st22{fill:none;stroke:#FCAF3E;stroke-width:0.9821;stroke-linecap:round;stroke-linejoin:round;}
	.st23{fill:#FFFFFF;}
	.st24{fill:#FFFEFF;fill-opacity:0.2139;}
</style>
<defs>
	
		<inkscape:perspective  id="perspective104" inkscape:persp3d-origin="24 : 16 : 1" inkscape:vp_x="0 : 24 : 1" inkscape:vp_y="0 : 1000 : 0" inkscape:vp_z="48 : 24 : 1" sodipodi:type="inkscape:persp3d">
		</inkscape:perspective>
</defs>
<sodipodi:namedview  bordercolor="#666666" borderopacity="0.22745098" fill="#3465a4" id="base" inkscape:current-layer="layer2" inkscape:cx="-133.68151" inkscape:cy="11.891468" inkscape:document-units="px" inkscape:grid-bbox="true" inkscape:pageopacity="0.0" inkscape:pageshadow="2" inkscape:showpageshadow="false" inkscape:window-height="818" inkscape:window-width="999" inkscape:window-x="0" inkscape:window-y="30" inkscape:zoom="1" pagecolor="#ffffff" showgrid="false" stroke="#204a87">
	</sodipodi:namedview>
<g>
	<g id="layer2" inkscape:groupmode="layer" inkscape:label="pix">
		<g id="g5022" transform="matrix(2.411405e-2,0,0,1.929202e-2,45.48953,41.75228)">
			
				<linearGradient id="rect4173_00000104697820855749763580000017509244560180174479_" gradientUnits="userSpaceOnUse" x1="167976.3906" y1="-529892.6875" x2="167976.3906" y2="-530087.125" gradientTransform="matrix(6.690176e-02 0 0 -3.799961e-02 -12329.791 -20657.3008)">
				<stop  offset="0" style="stop-color:#000000;stop-opacity:0"/>
				<stop  offset="0.5" style="stop-color:#000000"/>
				<stop  offset="1" style="stop-color:#000000;stop-opacity:0"/>
			</linearGradient>
			
				<rect id="rect4173" x="-1628.1" y="-521.6" style="opacity:0.4021;fill:url(#rect4173_00000104697820855749763580000017509244560180174479_);enable-background:new    ;" width="1072.5" height="383"/>
			
				<radialGradient id="path5058_00000180336562126213488990000017495403829506505618_" cx="176085.1562" cy="-534872.5625" r="93.7841" gradientTransform="matrix(6.690176e-02 0 0 -3.799961e-02 -12329.2451 -20657.3008)" gradientUnits="userSpaceOnUse">
				<stop  offset="0" style="stop-color:#000000"/>
				<stop  offset="1" style="stop-color:#000000;stop-opacity:0"/>
			</radialGradient>
			
				<path id="path5058" sodipodi:nodetypes="cccc" style="opacity:0.4021;fill:url(#path5058_00000180336562126213488990000017495403829506505618_);enable-background:new    ;" d="
				M-555.6-521.6v383c114.4,0.7,276.5-85.8,276.5-191.5C-279.1-435.8-406.7-521.6-555.6-521.6z"/>
			
				<radialGradient id="path5018_00000085243218689834530870000013698677929984727723_" cx="-156306.2812" cy="-534872.5625" r="93.7841" gradientTransform="matrix(-6.690176e-02 0 0 -3.799961e-02 -12092.0771 -20657.3008)" gradientUnits="userSpaceOnUse">
				<stop  offset="0" style="stop-color:#000000"/>
				<stop  offset="1" style="stop-color:#000000;stop-opacity:0"/>
			</radialGradient>
			
				<path id="path5018" sodipodi:nodetypes="cccc" style="opacity:0.4021;fill:url(#path5018_00000085243218689834530870000013698677929984727723_);enable-background:new    ;" d="
				M-1628.1-521.6v383c-114.4,0.7-276.5-85.8-276.5-191.5S-1777-521.6-1628.1-521.6z"/>
		</g>
		<path id="path4196" sodipodi:nodetypes="cccsccccccccc" class="st3" d="M8.9,11.1c-0.5,0-0.8,0.2-1,0.7c0,0-5.2,13.7-5.2,13.7
			S2.5,26,2.5,26.9v7.7c0,0.9,0.5,1.3,1.3,1.3h30.9c0.8,0,1.3-0.6,1.3-1.5v-7.7c0,0,0.1-0.6-0.1-1.1l-5.4-13.8
			c-0.1-0.4-0.5-0.8-0.9-0.8H8.9z"/>
		
			<linearGradient id="path4170_00000181798093819476941920000008014964189182632126_" gradientUnits="userSpaceOnUse" x1="6.9248" y1="27.6385" x2="29.8046" y2="17.6609" gradientTransform="matrix(1 0 0 -1 0 53.0148)">
			<stop  offset="0" style="stop-color:#BBBBBB"/>
			<stop  offset="1" style="stop-color:#9F9F9F"/>
		</linearGradient>
		
			<path id="path4170" sodipodi:nodetypes="ccccccccc" style="fill-rule:evenodd;clip-rule:evenodd;fill:url(#path4170_00000181798093819476941920000008014964189182632126_);" d="
			M2.5,26.3l0.6-0.6l30.1,0.1l2.8,0.3v8.4c0,0.9-0.5,1.5-1.3,1.5H3.9c-0.8,0-1.3-0.4-1.3-1.3V26.3z"/>
		
			<radialGradient id="path3093_00000127730942168694390750000013135006553915530390_" cx="31.8528" cy="298.0357" r="16.7611" gradientTransform="matrix(1.2862 0.7817 0.7108 -1.1696 -240.43 336.9735)" gradientUnits="userSpaceOnUse">
			<stop  offset="0" style="stop-color:#E4E4E4"/>
			<stop  offset="1" style="stop-color:#D3D3D3"/>
		</radialGradient>
		
			<path id="path3093" sodipodi:nodetypes="csccccccs" style="fill-rule:evenodd;clip-rule:evenodd;fill:url(#path3093_00000127730942168694390750000013135006553915530390_);" d="
			M2.8,25.4c-0.6,1.2,0,1.9,0.8,1.9h31.2c0.9,0,1.5-0.8,1.1-1.7l-5.4-13.8c-0.1-0.4-0.5-0.8-0.9-0.8H9c-0.5,0-0.8,0.2-1,0.7
			L2.8,25.4z"/>
		
			<linearGradient id="rect4174_00000098184361805411250140000010587986718297000354_" gradientUnits="userSpaceOnUse" x1="5.408" y1="19.8107" x2="19.5185" y2="19.8107" gradientTransform="matrix(1 0 0 -1 0.7955 51.689)">
			<stop  offset="0" style="stop-color:#838383"/>
			<stop  offset="1" style="stop-color:#BBBBBB;stop-opacity:0"/>
		</linearGradient>
		
			<rect id="rect4174" x="6.2" y="29.7" style="fill-rule:evenodd;clip-rule:evenodd;fill:url(#rect4174_00000098184361805411250140000010587986718297000354_);" width="14.1" height="4.5"/>
		
			<linearGradient id="path4194_00000118362372079848030620000014668534603934398903_" gradientUnits="userSpaceOnUse" x1="11.3879" y1="18.5608" x2="11.3434" y2="21.3206" gradientTransform="matrix(1 0 0 -1 0 53.0148)">
			<stop  offset="0" style="stop-color:#EEEEEE"/>
			<stop  offset="1" style="stop-color:#EEEEEE;stop-opacity:0"/>
		</linearGradient>
		
			<path id="path4194" sodipodi:nodetypes="cscc" style="opacity:0.8114;fill-rule:evenodd;clip-rule:evenodd;fill:url(#path4194_00000118362372079848030620000014668534603934398903_);enable-background:new    ;" d="
			M6.2,34.1v-3.2c1.5,2.5,6.6,3.2,10.4,3.2H6.2z"/>
		<path id="path4201" sodipodi:nodetypes="cccccccc" class="st8" d="M35.8,25.2c0.1,1-0.3,1.9-1.1,1.9H4.2c-1,0-1.5-0.3-1.7-0.7
			c0.1,0.8,0.7,1.3,1.7,1.3h30.5c0.9,0,1.4-1.1,1.1-2.4L35.8,25.2z"/>
		
			<linearGradient id="path4211_00000036971210780725836690000012219875032108927910_" gradientUnits="userSpaceOnUse" x1="19.3644" y1="39.2593" x2="19.3644" y2="27.2197" gradientTransform="matrix(1 0 0 -1 0 53.0148)">
			<stop  offset="0" style="stop-color:#FFFFFF;stop-opacity:0.2549"/>
			<stop  offset="1" style="stop-color:#FFFFFF"/>
		</linearGradient>
		
			<path id="path4211" style="opacity:0.6914;fill-rule:evenodd;clip-rule:evenodd;fill:url(#path4211_00000036971210780725836690000012219875032108927910_);enable-background:new    ;" d="
			M8.7,12.8c0,0.2-0.2,0.3-0.2,0.5c0,0.8,0.5,1.4,1.1,2.1c0.2-0.1,0.3-0.3,0.5-0.4C9.4,14.3,8.9,13.6,8.7,12.8z M30,12.8
			c-0.2,0.8-0.7,1.5-1.4,2.2c0.2,0.1,0.3,0.3,0.5,0.4c0.6-0.6,1.1-1.3,1.1-2.1C30.2,13.1,30.1,13,30,12.8z M31.8,19.6
			c-0.5,3.2-5.8,5.8-12.4,5.8c-6.6,0-11.9-2.6-12.4-5.8c0,0.2-0.1,0.3-0.1,0.5c0,3.5,5.6,6.3,12.5,6.3s12.5-2.8,12.5-6.3
			C31.9,19.9,31.8,19.7,31.8,19.6z"/>
		
			<path id="path4224" sodipodi:cx="7.2036505" sodipodi:cy="25.593554" sodipodi:rx="1.3700194" sodipodi:ry="1.016466" sodipodi:type="arc" class="st10" d="
			M6.8,25.3c0,0.4-0.5,0.8-1.1,0.8s-1.1-0.4-1.1-0.8c0,0,0,0,0,0c0-0.4,0.5-0.8,1.1-0.8C6.4,24.5,6.8,24.9,6.8,25.3
			C6.8,25.3,6.8,25.3,6.8,25.3z"/>
		
			<path id="path4226" sodipodi:cx="7.2036505" sodipodi:cy="25.593554" sodipodi:rx="1.3700194" sodipodi:ry="1.016466" sodipodi:type="arc" class="st10" d="
			M34,25.3c0,0.4-0.5,0.8-1.1,0.8c-0.6,0-1.1-0.4-1.1-0.8c0,0,0,0,0,0c0-0.4,0.5-0.8,1.1-0.8C33.5,24.4,34,24.8,34,25.3
			C34,25.3,34,25.3,34,25.3z"/>
		
			<linearGradient id="path4252_00000178202750018189573940000007894231336019325117_" gradientUnits="userSpaceOnUse" x1="6.9009" y1="42.7611" x2="32.4359" y2="7.9921" gradientTransform="matrix(1 0 0 -1 0 53.0148)">
			<stop  offset="0" style="stop-color:#FFFFFF"/>
			<stop  offset="1" style="stop-color:#FFFFFF;stop-opacity:0"/>
		</linearGradient>
		
			<path id="path4252" sodipodi:nodetypes="cccsccccccccc" style="fill:none;stroke:url(#path4252_00000178202750018189573940000007894231336019325117_);stroke-width:1;stroke-linecap:round;stroke-linejoin:round;" d="
			M9.2,11.4c-0.5,0-0.8,0.2-1,0.7c0,0-5.1,13.3-5.1,13.3s-0.2,0.5-0.2,1.4v7.4c0,1.1,0.4,1.3,1.3,1.3h30.2c1.1,0,1.2-0.3,1.2-1.5
			v-7.4c0,0,0.1-0.6-0.1-1l-5.3-13.5c-0.1-0.4-0.4-0.7-0.8-0.7H9.2z"/>
		<path id="path4282" class="st12" d="M32.3,29.9v4"/>
		<path id="path4284" class="st12" d="M30.7,29.9v4"/>
		<path id="path4286" class="st12" d="M29.1,29.9v4"/>
		<path id="path4288" class="st12" d="M27.5,29.9v4"/>
		<path id="path4290" class="st12" d="M25.9,29.9v4"/>
		<path id="path4292" class="st12" d="M24.3,29.9v4"/>
		<path id="path4294" class="st13" d="M31.5,29.9v4"/>
		<path id="path4296" class="st13" d="M29.9,29.9v4"/>
		<path id="path4298" class="st13" d="M28.3,29.9v4"/>
		<path id="path4300" class="st13" d="M26.7,29.9v4"/>
		<path id="path4302" class="st13" d="M25.1,29.9v4"/>
		<path id="path4572" class="st14" d="M6.2,29.7v4.4h10.1l-9.8-0.3L6.2,29.7z"/>
		
			<linearGradient id="path2545_00000051381711268419414820000013827658561448264605_" gradientUnits="userSpaceOnUse" x1="16.2959" y1="44.6125" x2="6.9423" y2="60.7718" gradientTransform="matrix(1.0378 0 0 -1.0607 8.6906 77.9459)">
			<stop  offset="0" style="stop-color:#FFFFFF"/>
			<stop  offset="0.5" style="stop-color:#E6E6E6"/>
			<stop  offset="0.75" style="stop-color:#FFFFFF"/>
			<stop  offset="0.8417" style="stop-color:#E1E1E1"/>
			<stop  offset="1" style="stop-color:#FFFFFF"/>
		</linearGradient>
		
			<path id="path2545" sodipodi:cx="25" sodipodi:cy="19.5625" sodipodi:rx="14.875" sodipodi:ry="6.6875" sodipodi:type="arc" style="opacity:0.2057;fill-rule:evenodd;clip-rule:evenodd;fill:url(#path2545_00000051381711268419414820000013827658561448264605_);enable-background:new    ;" d="
			M31.7,19.6c0,3.1-5.5,5.7-12.4,5.7S7,22.8,7,19.6S12.6,14,19.4,14S31.7,16.5,31.7,19.6z"/>
	</g>
	<g id="layer1" inkscape:groupmode="layer" inkscape:label="down">
		
			<radialGradient id="path8660_00000139268703495052206380000015212451182945105284_" cx="-10.9509" cy="1370.9672" r="12.5271" gradientTransform="matrix(1.1302 0 0 0.4077 31.6321 -537.5308)" gradientUnits="userSpaceOnUse">
			<stop  offset="0" style="stop-color:#000000"/>
			<stop  offset="1" style="stop-color:#000000;stop-opacity:0"/>
		</radialGradient>
		
			<path id="path8660" sodipodi:cx="24.837126" sodipodi:cy="36.421127" sodipodi:rx="15.644737" sodipodi:ry="8.3968935" sodipodi:type="arc" style="opacity:0.1412;fill-rule:evenodd;clip-rule:evenodd;fill:url(#path8660_00000139268703495052206380000015212451182945105284_);enable-background:new    ;" d="
			M33.4,21.4c0-2.8-6.3-5.1-14.2-5.1c-7.8,0-14.2,2.3-14.2,5.1c0,0,0,0,0,0c0,2.8,6.3,5.1,14.2,5.1S33.4,24.2,33.4,21.4
			C33.4,21.4,33.4,21.4,33.4,21.4z"/>
		
			<linearGradient id="path1432_00000068636813026056427600000017346286991673474474_" gradientUnits="userSpaceOnUse" x1="11.8172" y1="33.9609" x2="7.1287" y2="33.2604" gradientTransform="matrix(1 0 0 -1 0 47.8898)">
			<stop  offset="0" style="stop-color:#3465A4"/>
			<stop  offset="1" style="stop-color:#3465A4;stop-opacity:0"/>
		</linearGradient>
		
			<linearGradient id="path1432_00000178888632505823264870000012456615068036297384_" gradientUnits="userSpaceOnUse" x1="10.2552" y1="31.7578" x2="6.0028" y2="29.4344" gradientTransform="matrix(1 0 0 -1 0 47.8898)">
			<stop  offset="0" style="stop-color:#204A87"/>
			<stop  offset="1" style="stop-color:#204A87;stop-opacity:0"/>
		</linearGradient>
		
			<path id="path1432" sodipodi:nodetypes="ccccccc" style="fill:url(#path1432_00000068636813026056427600000017346286991673474474_);stroke:url(#path1432_00000178888632505823264870000012456615068036297384_);stroke-width:1;" d="
			M2.5,21.3c-0.8-25,20.4-21,20.3-8h5.9l-9.1,10.4L10,13.2h6C16.4,4.4,2.6,1.9,2.5,21.3z"/>
		
			<linearGradient id="path2177_00000033367680386358226760000004259837253812479666_" gradientUnits="userSpaceOnUse" x1="54.4761" y1="-10.512" x2="37.9634" y2="1.4553" gradientTransform="matrix(0.9141 0 0 -0.9141 -27.3156 6.9731)">
			<stop  offset="0" style="stop-color:#FFFFFF"/>
			<stop  offset="1" style="stop-color:#FFFFFF;stop-opacity:0"/>
		</linearGradient>
		
			<path id="path2177" sodipodi:nodetypes="ccccccc" style="opacity:0.4716;fill:none;stroke:url(#path2177_00000033367680386358226760000004259837253812479666_);stroke-width:1;stroke-miterlimit:10;enable-background:new    ;" d="
			M6,7.9c3.8-7.3,16.4-5.1,16.1,6h5.1l-7.7,8.8l-8.1-8.8h5.2C16.8,4.6,8.7,5,6,7.9z"/>
		
			<radialGradient id="path4989_00000032624584585366841470000007520492317812790404_" cx="-457.1476" cy="142.9667" r="15.2614" gradientTransform="matrix(-1.3145 -1.006312e-02 1.022964e-02 -1.3362 -590.1805 189.814)" gradientUnits="userSpaceOnUse">
			<stop  offset="0" style="stop-color:#FFFFFF"/>
			<stop  offset="1" style="stop-color:#FFFFFF;stop-opacity:0"/>
		</radialGradient>
		
			<path id="path4989" sodipodi:nodetypes="cccccccc" style="opacity:0.4943;fill:url(#path4989_00000032624584585366841470000007520492317812790404_);enable-background:new    ;" d="
			M27.7,13.6l-1.6,2c-4.3-1.2-6.3,2.2-12.5,1.4l-3.1-3.5l5.8,0.1c0-9.5-9.7-8.9-12.3-2c3-11.9,18.3-10.3,18.6,2L27.7,13.6z"/>
	</g>
</g>
<g id="layer1_00000163786391607801363640000017764909407205585302_" inkscape:groupmode="layer" inkscape:label="Layer 1">
	
		<radialGradient id="path3099_00000121266818226559193670000017902943677510859668_" cx="-124.2709" cy="-102.1672" r="3.6529" gradientTransform="matrix(2.1829 0 0 -0.7675 309.4313 -33.7431)" gradientUnits="userSpaceOnUse">
		<stop  offset="0" style="stop-color:#000000"/>
		<stop  offset="1" style="stop-color:#000000;stop-opacity:0"/>
	</radialGradient>
	
		<path id="path3099" sodipodi:cx="17.312500" sodipodi:cy="25.531250" sodipodi:rx="9.6875000" sodipodi:ry="3.4062500" sodipodi:type="arc" style="opacity:0.4091;fill:url(#path3099_00000121266818226559193670000017902943677510859668_);enable-background:new    ;" d="
		M46.1,44.7c0,1.5-3.6,2.8-8,2.8s-8-1.3-8-2.8s3.6-2.8,8-2.8S46.1,43.1,46.1,44.7z"/>
	
		<path id="path1650" sodipodi:cx="24.130018" sodipodi:cy="23.428040" sodipodi:rx="22.008699" sodipodi:ry="21.213203" sodipodi:type="arc" class="st21" d="
		M46,37.1c0,4.3-3.5,7.8-7.8,7.8s-7.8-3.5-7.8-7.8s3.5-7.8,7.8-7.8S46,32.8,46,37.1z"/>
	
		<path id="path3392" sodipodi:cx="24.130018" sodipodi:cy="23.428040" sodipodi:rx="22.008699" sodipodi:ry="21.213203" sodipodi:type="arc" class="st22" d="
		M45.8,37.1c0,4.2-3.4,7.6-7.6,7.6s-7.6-3.4-7.6-7.6s3.4-7.6,7.6-7.6S45.8,32.9,45.8,37.1z"/>
	<path id="rect1872" class="st23" d="M37.1,33c0,0-0.1,0.1-0.1,0.1l0.4,5.4c0,0.1,0,0.1,0.1,0.1c0,0,0.3,0,0.6,0c0.1,0,0.1,0,0.2,0
		c0.3,0,0.6,0,0.6,0c0,0,0.1-0.1,0.1-0.1l0.4-5.4c0-0.1,0-0.1-0.1-0.1h-1c0,0,0,0,0,0H37.1z"/>
	
		<path id="path2062" sodipodi:cx="-16.437500" sodipodi:cy="34.062500" sodipodi:rx="4.5625000" sodipodi:ry="3.8125000" sodipodi:type="arc" class="st23" d="
		M39.1,40.5c0,0.5-0.4,0.9-0.9,0.9c-0.5,0-0.9-0.4-0.9-0.9c0-0.5,0.4-0.9,0.9-0.9C38.7,39.6,39.1,40,39.1,40.5z"/>
	<path id="path3068" sodipodi:nodetypes="czssc" class="st24" d="M45.5,36.8c0,4.1-2.3-1.6-7,0.1c-4.8,1.8-7.8,3.9-7.8-0.1
		s3.3-7.4,7.4-7.4S45.5,32.7,45.5,36.8z"/>
</g>
</svg>
