<?xml version="1.0" encoding="utf-8"?>
<!-- Generator: Adobe Illustrator 26.0.2, SVG Export Plug-In . SVG Version: 6.00 Build 0)  -->
<svg version="1.1"
	 id="svg2913" inkscape:output_extension="org.inkscape.output.svg.inkscape" sodipodi:docname="document-save.svg" sodipodi:version="0.32" xmlns:cc="http://creativecommons.org/ns#" xmlns:dc="http://purl.org/dc/elements/1.1/" xmlns:inkscape="http://www.inkscape.org/namespaces/inkscape" xmlns:rdf="http://www.w3.org/1999/02/22-rdf-syntax-ns#" xmlns:sodipodi="http://sodipodi.sourceforge.net/DTD/sodipodi-0.dtd" xmlns:svg="http://www.w3.org/2000/svg"
	 xmlns="http://www.w3.org/2000/svg" xmlns:xlink="http://www.w3.org/1999/xlink" x="0px" y="0px" viewBox="0 0 48 48"
	 style="enable-background:new 0 0 48 48;" xml:space="preserve">
<style type="text/css">
	.st0{opacity:0.4021;fill:url(#rect4173_00000137837273871612106990000009592999543914531986_);enable-background:new    ;}
	.st1{opacity:0.4021;fill:url(#path5058_00000173145133735051968040000008417194463890503841_);enable-background:new    ;}
	.st2{opacity:0.4021;fill:url(#path5018_00000098916010657308675430000007558345129902285455_);enable-background:new    ;}
	.st3{fill:none;stroke:#535353;stroke-width:2;stroke-linecap:round;stroke-linejoin:round;}
	.st4{fill-rule:evenodd;clip-rule:evenodd;fill:url(#path4170_00000046303171991739856800000001212662885071402663_);}
	.st5{fill-rule:evenodd;clip-rule:evenodd;fill:url(#path3093_00000037656144301184077730000017541919520650609830_);}
	.st6{fill-rule:evenodd;clip-rule:evenodd;fill:url(#rect4174_00000099655851749521686280000011169193019407233410_);}
	
		.st7{opacity:0.8114;fill-rule:evenodd;clip-rule:evenodd;fill:url(#path4194_00000124867257751606541890000008780968171253919132_);enable-background:new    ;}
	.st8{fill-rule:evenodd;clip-rule:evenodd;fill:#FFFFFF;}
	
		.st9{opacity:0.6914;fill-rule:evenodd;clip-rule:evenodd;fill:url(#path4211_00000010271970976431302010000002206892600859743623_);enable-background:new    ;}
	.st10{fill-rule:evenodd;clip-rule:evenodd;fill:#FFFFFF;fill-opacity:0.4576;}
	
		.st11{fill:none;stroke:url(#path4252_00000171719218007279063080000007387954189593627833_);stroke-linecap:round;stroke-linejoin:round;}
	.st12{fill:none;stroke:#FFFFFF;stroke-linecap:square;stroke-opacity:0.4237;}
	.st13{opacity:9.714284e-02;fill:none;stroke:#000000;stroke-linecap:square;enable-background:new    ;}
	.st14{opacity:0.44;fill-rule:evenodd;clip-rule:evenodd;fill:#FFFFFF;enable-background:new    ;}
	
		.st15{opacity:0.2057;fill-rule:evenodd;clip-rule:evenodd;fill:url(#path2545_00000031909969758873257410000016191069869468515261_);enable-background:new    ;}
	
		.st16{opacity:0.1412;fill-rule:evenodd;clip-rule:evenodd;fill:url(#path8660_00000181083194764267695900000017856464041058383002_);enable-background:new    ;}
	
		.st17{fill:url(#path1432_00000145779661477228002590000000716461972773794703_);stroke:url(#path1432_00000040570131571542481350000013763978019937462698_);}
	
		.st18{opacity:0.4716;fill:none;stroke:url(#path2177_00000110433640419316518760000004308977751991986822_);stroke-miterlimit:10;enable-background:new    ;}
	.st19{opacity:0.4943;fill:url(#path4989_00000034793855173198609120000010462141795894483598_);enable-background:new    ;}
	.st20{opacity:0.4021;fill:url(#rect4173_00000073683033394145388130000005502791957394276529_);enable-background:new    ;}
	.st21{opacity:0.4021;fill:url(#path5058_00000014620800715726088030000005265150770636856738_);enable-background:new    ;}
	.st22{opacity:0.4021;fill:url(#path5018_00000117667006151197099930000001982916689775107764_);enable-background:new    ;}
	
		.st23{fill-rule:evenodd;clip-rule:evenodd;fill:url(#rect4238_00000121238820103607455640000007629042005665816508_);stroke:#888A85;stroke-width:1;}
	.st24{fill-rule:evenodd;clip-rule:evenodd;fill:#999999;}
	.st25{fill:none;stroke:#FFFFFF;}
	.st26{fill:#999999;}
	.st27{opacity:0.5;fill:#729FCF;enable-background:new    ;}
</style>
<defs>
	
		<inkscape:perspective  id="perspective104" inkscape:persp3d-origin="24 : 16 : 1" inkscape:vp_x="0 : 24 : 1" inkscape:vp_y="0 : 1000 : 0" inkscape:vp_z="48 : 24 : 1" sodipodi:type="inkscape:persp3d">
		</inkscape:perspective>
</defs>
<sodipodi:namedview  bordercolor="#666666" borderopacity="0.22745098" fill="#3465a4" id="base" inkscape:current-layer="layer2" inkscape:cx="-133.68151" inkscape:cy="11.891468" inkscape:document-units="px" inkscape:grid-bbox="true" inkscape:pageopacity="0.0" inkscape:pageshadow="2" inkscape:showpageshadow="false" inkscape:window-height="818" inkscape:window-width="999" inkscape:window-x="0" inkscape:window-y="30" inkscape:zoom="1" pagecolor="#ffffff" showgrid="false" stroke="#204a87">
	</sodipodi:namedview>
<g>
	<g id="layer2" inkscape:groupmode="layer" inkscape:label="pix">
		<g id="g5022" transform="matrix(2.411405e-2,0,0,1.929202e-2,45.48953,41.75228)">
			
				<linearGradient id="rect4173_00000027594526925284892470000013547703335653927579_" gradientUnits="userSpaceOnUse" x1="-680724.1875" y1="-1847.0353" x2="-680724.1875" y2="-1821.173" gradientTransform="matrix(1.613272e-03 0 0 7.330892e-04 -23629.7324 -41251.1172)">
				<stop  offset="0" style="stop-color:#000000;stop-opacity:0"/>
				<stop  offset="0.5" style="stop-color:#000000"/>
				<stop  offset="1" style="stop-color:#000000;stop-opacity:0"/>
			</linearGradient>
			
				<rect id="rect4173" x="-1628.1" y="-521.6" style="opacity:0.4021;fill:url(#rect4173_00000027594526925284892470000013547703335653927579_);enable-background:new    ;" width="1072.5" height="383"/>
			
				<radialGradient id="path5058_00000041261400706426144660000010127034367912970127_" cx="-417.3509" cy="-330.0982" r="3.5187" gradientTransform="matrix(1.613272e-03 0 0 7.330892e-04 -23629.1875 -41251.1172)" gradientUnits="userSpaceOnUse">
				<stop  offset="0" style="stop-color:#000000"/>
				<stop  offset="1" style="stop-color:#000000;stop-opacity:0"/>
			</radialGradient>
			
				<path id="path5058" sodipodi:nodetypes="cccc" style="opacity:0.4021;fill:url(#path5058_00000041261400706426144660000010127034367912970127_);enable-background:new    ;" d="
				M-555.6-521.6v383c114.4,0.7,276.5-85.8,276.5-191.5C-279.1-435.8-406.7-521.6-555.6-521.6z"/>
			
				<radialGradient id="path5018_00000054238728423903763380000002332564362486268804_" cx="-1766.3536" cy="-330.0982" r="3.5187" gradientTransform="matrix(-1.613272e-03 0 0 7.330892e-04 -23434.6348 -41251.1172)" gradientUnits="userSpaceOnUse">
				<stop  offset="0" style="stop-color:#000000"/>
				<stop  offset="1" style="stop-color:#000000;stop-opacity:0"/>
			</radialGradient>
			
				<path id="path5018" sodipodi:nodetypes="cccc" style="opacity:0.4021;fill:url(#path5018_00000054238728423903763380000002332564362486268804_);enable-background:new    ;" d="
				M-1628.1-521.6v383c-114.4,0.7-276.5-85.8-276.5-191.5S-1777-521.6-1628.1-521.6z"/>
		</g>
		<path id="path4196" sodipodi:nodetypes="cccsccccccccc" class="st3" d="M8.9,11.1c-0.5,0-0.8,0.2-1,0.7L2.7,25.5
			c0,0-0.2,0.5-0.2,1.4v7.7c0,0.9,0.5,1.3,1.3,1.3h30.9c0.8,0,1.3-0.6,1.3-1.5v-7.7c0,0,0.1-0.6-0.1-1.1l-5.4-13.8
			C30.4,11.4,30,11,29.6,11H8.9V11.1z"/>
		
			<linearGradient id="path4170_00000009556518493748452740000012868982815660390068_" gradientUnits="userSpaceOnUse" x1="6.8968" y1="814.3156" x2="29.7766" y2="824.2932" gradientTransform="matrix(1 0 0 1 0 -788.875)">
			<stop  offset="0" style="stop-color:#BBBBBB"/>
			<stop  offset="1" style="stop-color:#9F9F9F"/>
		</linearGradient>
		
			<path id="path4170" sodipodi:nodetypes="ccccccccc" style="fill-rule:evenodd;clip-rule:evenodd;fill:url(#path4170_00000009556518493748452740000012868982815660390068_);" d="
			M2.5,26.3l0.6-0.6l30.1,0.1l2.8,0.3v8.4c0,0.9-0.5,1.5-1.3,1.5H3.9c-0.8,0-1.3-0.4-1.3-1.3v-8.4H2.5z"/>
		
			<radialGradient id="path3093_00000047045798142861470650000004192823076165132471_" cx="50.8414" cy="291.1364" r="16.7611" gradientTransform="matrix(1.2862 0.7817 -0.7108 1.1696 153.9303 -366.9655)" gradientUnits="userSpaceOnUse">
			<stop  offset="0" style="stop-color:#E4E4E4"/>
			<stop  offset="1" style="stop-color:#D3D3D3"/>
		</radialGradient>
		
			<path id="path3093" sodipodi:nodetypes="csccccccs" style="fill-rule:evenodd;clip-rule:evenodd;fill:url(#path3093_00000047045798142861470650000004192823076165132471_);" d="
			M2.8,25.4c-0.6,1.2,0,1.9,0.8,1.9h31.2c0.9,0,1.5-0.8,1.1-1.7l-5.4-13.8C30.4,11.4,30,11,29.6,11H9c-0.5,0-0.8,0.2-1,0.7L2.8,25.4
			z"/>
		
			<linearGradient id="rect4174_00000121248627114491227280000015157146101150035336_" gradientUnits="userSpaceOnUse" x1="5.4045" y1="822.1508" x2="19.5045" y2="822.1508" gradientTransform="matrix(1 0 0 1 0.7955 -790.2008)">
			<stop  offset="0" style="stop-color:#838383"/>
			<stop  offset="1" style="stop-color:#BBBBBB;stop-opacity:0"/>
		</linearGradient>
		
			<rect id="rect4174" x="6.2" y="29.7" style="fill-rule:evenodd;clip-rule:evenodd;fill:url(#rect4174_00000121248627114491227280000015157146101150035336_);" width="14.1" height="4.5"/>
		
			<linearGradient id="path4194_00000052795547935843553470000015354644340875275455_" gradientUnits="userSpaceOnUse" x1="11.4057" y1="823.3287" x2="11.3612" y2="820.569" gradientTransform="matrix(1 0 0 1 0 -788.875)">
			<stop  offset="0" style="stop-color:#EEEEEE"/>
			<stop  offset="1" style="stop-color:#EEEEEE;stop-opacity:0"/>
		</linearGradient>
		
			<path id="path4194" sodipodi:nodetypes="cscc" style="opacity:0.8114;fill-rule:evenodd;clip-rule:evenodd;fill:url(#path4194_00000052795547935843553470000015354644340875275455_);enable-background:new    ;" d="
			M6.2,34.1v-3.2c1.5,2.5,6.6,3.2,10.4,3.2H6.2z"/>
		<path id="path4201" sodipodi:nodetypes="cccccccc" class="st8" d="M35.8,25.2c0.1,1-0.3,1.9-1.1,1.9H4.2c-1,0-1.5-0.3-1.7-0.7
			c0.1,0.8,0.7,1.3,1.7,1.3h30.5C35.6,27.7,36.1,26.6,35.8,25.2L35.8,25.2z"/>
		
			<linearGradient id="path4211_00000176732898325924709410000005119234838659392930_" gradientUnits="userSpaceOnUse" x1="19.4" y1="802.6306" x2="19.4" y2="814.6701" gradientTransform="matrix(1 0 0 1 0 -788.875)">
			<stop  offset="0" style="stop-color:#FFFFFF;stop-opacity:0.2549"/>
			<stop  offset="1" style="stop-color:#FFFFFF"/>
		</linearGradient>
		
			<path id="path4211" style="opacity:0.6914;fill-rule:evenodd;clip-rule:evenodd;fill:url(#path4211_00000176732898325924709410000005119234838659392930_);enable-background:new    ;" d="
			M8.7,12.8c0,0.2-0.2,0.3-0.2,0.5c0,0.8,0.5,1.4,1.1,2.1c0.2-0.1,0.3-0.3,0.5-0.4C9.4,14.3,8.9,13.6,8.7,12.8z M30,12.8
			c-0.2,0.8-0.7,1.5-1.4,2.2c0.2,0.1,0.3,0.3,0.5,0.4c0.6-0.6,1.1-1.3,1.1-2.1C30.2,13.1,30.1,13,30,12.8z M31.8,19.6
			c-0.5,3.2-5.8,5.8-12.4,5.8S7.5,22.8,7,19.6c0,0.2-0.1,0.3-0.1,0.5c0,3.5,5.6,6.3,12.5,6.3s12.5-2.8,12.5-6.3
			C31.9,19.9,31.8,19.7,31.8,19.6z"/>
		
			<path id="path4224" sodipodi:cx="7.2036505" sodipodi:cy="25.593554" sodipodi:rx="1.3700194" sodipodi:ry="1.016466" sodipodi:type="arc" class="st10" d="
			M6.8,25.3c0,0.4-0.5,0.8-1.1,0.8s-1.1-0.4-1.1-0.8l0,0c0-0.4,0.5-0.8,1.1-0.8C6.4,24.5,6.8,24.9,6.8,25.3L6.8,25.3z"/>
		
			<path id="path4226" sodipodi:cx="7.2036505" sodipodi:cy="25.593554" sodipodi:rx="1.3700194" sodipodi:ry="1.016466" sodipodi:type="arc" class="st10" d="
			M34,25.3c0,0.4-0.5,0.8-1.1,0.8s-1.1-0.4-1.1-0.8l0,0c0-0.4,0.5-0.8,1.1-0.8C33.5,24.4,34,24.8,34,25.3L34,25.3z"/>
		
			<linearGradient id="path4252_00000106128563480577407250000004670750339748480435_" gradientUnits="userSpaceOnUse" x1="6.891" y1="799.136" x2="32.426" y2="833.905" gradientTransform="matrix(1 0 0 1 0 -788.875)">
			<stop  offset="0" style="stop-color:#FFFFFF"/>
			<stop  offset="1" style="stop-color:#FFFFFF;stop-opacity:0"/>
		</linearGradient>
		
			<path id="path4252" sodipodi:nodetypes="cccsccccccccc" style="fill:none;stroke:url(#path4252_00000106128563480577407250000004670750339748480435_);stroke-linecap:round;stroke-linejoin:round;" d="
			M9.2,11.4c-0.5,0-0.8,0.2-1,0.7L3.1,25.4c0,0-0.2,0.5-0.2,1.4v7.4c0,1.1,0.4,1.3,1.3,1.3h30.2c1.1,0,1.2-0.3,1.2-1.5v-7.4
			c0,0,0.1-0.6-0.1-1l-5.3-13.5c-0.1-0.4-0.4-0.7-0.8-0.7C29.4,11.4,9.2,11.4,9.2,11.4z"/>
		<path id="path4282" class="st12" d="M32.3,29.9v4"/>
		<path id="path4284" class="st12" d="M30.7,29.9v4"/>
		<path id="path4286" class="st12" d="M29.1,29.9v4"/>
		<path id="path4288" class="st12" d="M27.5,29.9v4"/>
		<path id="path4290" class="st12" d="M25.9,29.9v4"/>
		<path id="path4292" class="st12" d="M24.3,29.9v4"/>
		<path id="path4294" class="st13" d="M31.5,29.9v4"/>
		<path id="path4296" class="st13" d="M29.9,29.9v4"/>
		<path id="path4298" class="st13" d="M28.3,29.9v4"/>
		<path id="path4300" class="st13" d="M26.7,29.9v4"/>
		<path id="path4302" class="st13" d="M25.1,29.9v4"/>
		<path id="path4572" class="st14" d="M6.2,29.7v4.4h10.1l-9.8-0.3L6.2,29.7z"/>
		
			<linearGradient id="path2545_00000088831435133689001700000015055729669370078392_" gradientUnits="userSpaceOnUse" x1="6.3357" y1="774.5681" x2="-3.0179" y2="758.4088" gradientTransform="matrix(1.0378 0 0 1.0607 19.01 -790.9488)">
			<stop  offset="0" style="stop-color:#FFFFFF"/>
			<stop  offset="0.5" style="stop-color:#E6E6E6"/>
			<stop  offset="0.75" style="stop-color:#FFFFFF"/>
			<stop  offset="0.8417" style="stop-color:#E1E1E1"/>
			<stop  offset="1" style="stop-color:#FFFFFF"/>
		</linearGradient>
		
			<path id="path2545" sodipodi:cx="25" sodipodi:cy="19.5625" sodipodi:rx="14.875" sodipodi:ry="6.6875" sodipodi:type="arc" style="opacity:0.2057;fill-rule:evenodd;clip-rule:evenodd;fill:url(#path2545_00000088831435133689001700000015055729669370078392_);enable-background:new    ;" d="
			M31.7,19.6c0,3.1-5.5,5.7-12.4,5.7S7,22.8,7,19.6S12.6,14,19.4,14S31.7,16.5,31.7,19.6z"/>
	</g>
	<g id="layer1" inkscape:groupmode="layer" inkscape:label="down">
		
			<radialGradient id="path8660_00000114044295399629987680000001111270866702532253_" cx="-42.4007" cy="-1899.8325" r="12.5275" gradientTransform="matrix(1.1302 0 0 -0.4077 67.1767 -753.1492)" gradientUnits="userSpaceOnUse">
			<stop  offset="0" style="stop-color:#000000"/>
			<stop  offset="1" style="stop-color:#000000;stop-opacity:0"/>
		</radialGradient>
		
			<path id="path8660" sodipodi:cx="24.837126" sodipodi:cy="36.421127" sodipodi:rx="15.644737" sodipodi:ry="8.3968935" sodipodi:type="arc" style="opacity:0.1412;fill-rule:evenodd;clip-rule:evenodd;fill:url(#path8660_00000114044295399629987680000001111270866702532253_);enable-background:new    ;" d="
			M33.4,21.4c0-2.8-6.3-5.1-14.2-5.1C11.4,16.3,5,18.6,5,21.4l0,0c0,2.8,6.3,5.1,14.2,5.1S33.4,24.2,33.4,21.4L33.4,21.4z"/>
		
			<linearGradient id="path1432_00000127723570135412659760000001956414978604535706_" gradientUnits="userSpaceOnUse" x1="11.8266" y1="807.9917" x2="7.1381" y2="808.6922" gradientTransform="matrix(1 0 0 1 0 -794)">
			<stop  offset="0" style="stop-color:#3465A4"/>
			<stop  offset="1" style="stop-color:#3465A4;stop-opacity:0"/>
		</linearGradient>
		
			<linearGradient id="path1432_00000030473471199607023980000006836993386269183423_" gradientUnits="userSpaceOnUse" x1="10.2879" y1="810.1918" x2="6.0355" y2="812.5153" gradientTransform="matrix(1 0 0 1 0 -794)">
			<stop  offset="0" style="stop-color:#204A87"/>
			<stop  offset="1" style="stop-color:#204A87;stop-opacity:0"/>
		</linearGradient>
		
			<path id="path1432" sodipodi:nodetypes="ccccccc" style="fill:url(#path1432_00000127723570135412659760000001956414978604535706_);stroke:url(#path1432_00000030473471199607023980000006836993386269183423_);" d="
			M2.5,21.3c-0.8-25,20.4-21,20.3-8h5.9l-9.1,10.4L10,13.2h6C16.4,4.4,2.6,1.9,2.5,21.3z"/>
		
			<linearGradient id="path2177_00000088124920459009356440000013467540894157532036_" gradientUnits="userSpaceOnUse" x1="80.0912" y1="889.7631" x2="63.5785" y2="877.7958" gradientTransform="matrix(0.9141 0 0 0.9141 -50.7663 -796.7007)">
			<stop  offset="0" style="stop-color:#FFFFFF"/>
			<stop  offset="1" style="stop-color:#FFFFFF;stop-opacity:0"/>
		</linearGradient>
		
			<path id="path2177" sodipodi:nodetypes="ccccccc" style="opacity:0.4716;fill:none;stroke:url(#path2177_00000088124920459009356440000013467540894157532036_);stroke-miterlimit:10;enable-background:new    ;" d="
			M6,7.9c3.8-7.3,16.4-5.1,16.1,6h5.1l-7.7,8.8l-8.1-8.8h5.2C16.8,4.6,8.7,5,6,7.9z"/>
		
			<radialGradient id="path4989_00000153690022391671930960000012568465025303231134_" cx="-940.131" cy="597.4529" r="15.2614" gradientTransform="matrix(-1.3145 -1.006312e-02 -1.022964e-02 1.3362 -1217.4879 -804.395)" gradientUnits="userSpaceOnUse">
			<stop  offset="0" style="stop-color:#FFFFFF"/>
			<stop  offset="1" style="stop-color:#FFFFFF;stop-opacity:0"/>
		</radialGradient>
		
			<path id="path4989" sodipodi:nodetypes="cccccccc" style="opacity:0.4943;fill:url(#path4989_00000153690022391671930960000012568465025303231134_);enable-background:new    ;" d="
			M27.7,13.6l-1.6,2c-4.3-1.2-6.3,2.2-12.5,1.4l-3.1-3.5l5.8,0.1c0-9.5-9.7-8.9-12.3-2c3-11.9,18.3-10.3,18.6,2H27.7z"/>
	</g>
</g>
<g id="layer1_00000168109259915204443670000006655866078305747847_" inkscape:groupmode="layer" inkscape:label="Layer 1">
	
		<g id="g5022_00000171680626973383540100000016138004269846869139_" transform="matrix(2.382811e-2,0,0,1.448788e-2,44.94353,43.77878)">
		
			<linearGradient id="rect4173_00000003094322353338098800000009507898411636971651_" gradientUnits="userSpaceOnUse" x1="184661.0781" y1="-963425.1875" x2="184661.0781" y2="-963515.1875" gradientTransform="matrix(6.610844e-02 0 0 -2.853687e-02 -12467.1934 -27484.8008)">
			<stop  offset="0" style="stop-color:#000000;stop-opacity:0"/>
			<stop  offset="0.5" style="stop-color:#000000"/>
			<stop  offset="1" style="stop-color:#000000;stop-opacity:0"/>
		</linearGradient>
		
			<rect id="rect4173_00000168818310198704372240000008835301453516420029_" x="-507.9" y="8.3" style="opacity:0.4021;fill:url(#rect4173_00000003094322353338098800000009507898411636971651_);enable-background:new    ;" width="496.8" height="177.4"/>
		
			<radialGradient id="path5058_00000124855613716460582810000008545698301329671555_" cx="188457.5469" cy="-966496.5625" r="43.4388" gradientTransform="matrix(6.610844e-02 0 0 -2.853687e-02 -12466.6475 -27484.8008)" gradientUnits="userSpaceOnUse">
			<stop  offset="0" style="stop-color:#000000"/>
			<stop  offset="1" style="stop-color:#000000;stop-opacity:0"/>
		</radialGradient>
		
			<path id="path5058_00000144307044352963769330000004960718030296703165_" sodipodi:nodetypes="cccc" style="opacity:0.4021;fill:url(#path5058_00000124855613716460582810000008545698301329671555_);enable-background:new    ;" d="
			M-11.2,8.3v177.4C41.8,186,116.9,146,116.9,97C116.9,48.1,57.8,8.3-11.2,8.3z"/>
		
			<radialGradient id="path5018_00000177442322054830675210000014206672500170696835_" cx="-177214.7188" cy="-966496.5625" r="43.4388" gradientTransform="matrix(-6.610844e-02 0 0 -2.853687e-02 -12226.4492 -27484.8008)" gradientUnits="userSpaceOnUse">
			<stop  offset="0" style="stop-color:#000000"/>
			<stop  offset="1" style="stop-color:#000000;stop-opacity:0"/>
		</radialGradient>
		
			<path id="path5018_00000014613574408432728100000009781490738084524688_" sodipodi:nodetypes="cccc" style="opacity:0.4021;fill:url(#path5018_00000177442322054830675210000014206672500170696835_);enable-background:new    ;" d="
			M-507.9,8.3v177.4C-560.9,186-636,146-636,97S-576.9,8.3-507.9,8.3z"/>
	</g>
	
		<linearGradient id="rect4238_00000000919437160146926790000012149315039052236716_" gradientUnits="userSpaceOnUse" x1="-36.1188" y1="89.6048" x2="-30.6299" y2="81.7354" gradientTransform="matrix(1.3427 0 0 -1.2354 85.3386 145.0577)">
		<stop  offset="0" style="stop-color:#F8F8F7"/>
		<stop  offset="0.5993" style="stop-color:#E8E8E8"/>
		<stop  offset="1" style="stop-color:#E2E2DE"/>
	</linearGradient>
	
		<path id="rect4238" style="fill-rule:evenodd;clip-rule:evenodd;fill:url(#rect4238_00000000919437160146926790000012149315039052236716_);stroke:#888A85;stroke-width:1;" d="
		M31.8,28.7h14c0.1,0,0.2,0.1,0.2,0.2v16.3c0,0.1-0.1,0.2-0.2,0.2h-14c-0.1,0-0.2-0.1-0.2-0.2V28.9C31.6,28.8,31.7,28.7,31.8,28.7z"
		/>
	<rect id="rect4248" x="38.1" y="31.8" class="st24" width="5.2" height="0.7"/>
	<rect id="rect4250" x="38.1" y="34" class="st24" width="4.4" height="0.7"/>
	<rect id="rect4252" x="33.3" y="36.3" class="st24" width="8.5" height="0.7"/>
	<rect id="rect4254" x="33.3" y="38.5" class="st24" width="10" height="0.7"/>
	<rect id="rect4256" x="33.3" y="40.7" class="st24" width="6.3" height="0.7"/>
	<rect id="rect2245" x="32" y="29" class="st25" width="13.7" height="16"/>
	<rect id="rect4837" x="33.3" y="31.8" class="st26" width="4.1" height="3.7"/>
	<rect id="rect1323" x="32.9" y="33.3" class="st27" width="10.8" height="2.2"/>
	<rect id="rect2198" x="32.9" y="31.1" class="st27" width="11.5" height="2.2"/>
	<rect id="rect2200" x="32.9" y="35.5" class="st27" width="9.3" height="2.2"/>
	<rect id="rect2202" x="32.9" y="37.8" class="st27" width="10.8" height="2.2"/>
	<rect id="rect2204" x="32.9" y="40" class="st27" width="7" height="2.2"/>
	<rect id="rect2206" x="40.3" y="40" width="0.4" height="2.6"/>
	<rect id="rect2208" x="40" y="39.6" width="0.4" height="0.4"/>
	<rect id="rect2210" x="40.7" y="39.6" width="0.4" height="0.4"/>
	<rect id="rect2212" x="40.7" y="42.6" width="0.4" height="0.4"/>
	<rect id="rect2214" x="40" y="42.6" width="0.4" height="0.4"/>
</g>
</svg>
