<?xml version="1.0" encoding="utf-8"?>
<!-- Generator: Adobe Illustrator 26.0.2, SVG Export Plug-In . SVG Version: 6.00 Build 0)  -->
<svg version="1.1"
	 id="svg2" inkscape:export-filename="python-logo-only.png" sodipodi:docname="python-logo-only.svg" sodipodi:version="0.32" xmlns:cc="http://creativecommons.org/ns#" xmlns:dc="http://purl.org/dc/elements/1.1/" xmlns:inkscape="http://www.inkscape.org/namespaces/inkscape" xmlns:rdf="http://www.w3.org/1999/02/22-rdf-syntax-ns#" xmlns:sodipodi="http://sodipodi.sourceforge.net/DTD/sodipodi-0.dtd" xmlns:svg="http://www.w3.org/2000/svg"
	 xmlns="http://www.w3.org/2000/svg" xmlns:xlink="http://www.w3.org/1999/xlink" x="0px" y="0px" viewBox="0 0 127.7 140.1"
	 style="enable-background:new 0 0 127.7 140.1;" xml:space="preserve">
<style type="text/css">
	.st0{fill:url(#path1948_00000167379353135965498910000001991899059054782392_);}
	.st1{fill:url(#path1950_00000164481177286001465060000002399431313377878944_);}
	.st2{opacity:0.4438;fill:url(#path1894_00000099659987716212976790000016909475767214397604_);enable-background:new    ;}
	
		.st3{opacity:0.15;fill:none;stroke:url(#path2682_00000044875796433975509750000003933513221586626208_);stroke-width:2;stroke-linecap:square;stroke-linejoin:round;enable-background:new    ;}
	.st4{fill-rule:evenodd;clip-rule:evenodd;fill:url(#path3375_00000119100418631651867370000014544981199852612257_);}
	
		.st5{fill:none;stroke:url(#path2479_00000130618153425250372900000009593427637859407259_);stroke-width:1;stroke-linecap:square;stroke-linejoin:round;}
	.st6{fill-rule:evenodd;clip-rule:evenodd;fill:#FFFFFF;}
	.st7{opacity:0.5;fill:#FFFFFF;enable-background:new    ;}
</style>
<g>
	
		<sodipodi:namedview  bordercolor="#666666" borderopacity="1.0" gridtolerance="10.0" guidetolerance="10.0" height="40mm" id="base" inkscape:current-layer="svg2" inkscape:cx="91.558698" inkscape:cy="47.9926" inkscape:deskcolor="#d1d1d1" inkscape:document-units="pt" inkscape:pagecheckerboard="0" inkscape:pageopacity="0.0" inkscape:pageshadow="2" inkscape:showpageshadow="2" inkscape:window-height="2080" inkscape:window-maximized="0" inkscape:window-width="1976" inkscape:window-x="1092" inkscape:window-y="72" inkscape:zoom="2.1461642" objecttolerance="10.0" pagecolor="#ffffff" showgrid="false" units="mm" width="210mm">
		</sodipodi:namedview>
	
		<linearGradient id="path1948_00000180368711656126478340000015267862340697363844_" gradientUnits="userSpaceOnUse" x1="231.6649" y1="-210.5312" x2="340.6812" y2="-304.3251" gradientTransform="matrix(0.5625 0 0 -0.568 -124.7933 -113.6822)">
		<stop  offset="0" style="stop-color:#5A9FD4"/>
		<stop  offset="1" style="stop-color:#306998"/>
	</linearGradient>
	<path id="path1948" style="fill:url(#path1948_00000180368711656126478340000015267862340697363844_);" d="M63.2,2.7
		c-4.6,0-9,0.4-12.8,1.1C39,5.8,37,10,37,17.7v10.2h26.8v3.4H37H26.9c-7.8,0-14.6,4.7-16.8,13.6c-2.5,10.2-2.6,16.6,0,27.2
		c1.9,7.9,6.5,13.6,14.3,13.6h9.2V73.5c0-8.8,7.7-16.7,16.8-16.7h26.8c7.5,0,13.4-6.1,13.4-13.6V17.7c0-7.3-6.1-12.7-13.4-13.9
		C72.5,3,67.8,2.7,63.2,2.7z M48.7,10.9c2.8,0,5,2.3,5,5.1c0,2.8-2.3,5.1-5,5.1c-2.8,0-5-2.3-5-5.1C43.6,13.2,45.9,10.9,48.7,10.9z"
		/>
	
		<linearGradient id="path1950_00000133497245978541203700000016533753418850225035_" gradientUnits="userSpaceOnUse" x1="382.8276" y1="-361.0931" x2="343.898" y2="-306.0143" gradientTransform="matrix(0.5625 0 0 -0.568 -124.7933 -113.6822)">
		<stop  offset="0" style="stop-color:#FFD43B"/>
		<stop  offset="1" style="stop-color:#FFE873"/>
	</linearGradient>
	<path id="path1950" style="fill:url(#path1950_00000133497245978541203700000016533753418850225035_);" d="M93.9,31.4v11.9
		c0,9.2-7.8,17-16.8,17H50.4C43,60.3,37,66.5,37,73.9v25.5c0,7.3,6.3,11.5,13.4,13.6c8.5,2.5,16.6,2.9,26.8,0
		c6.8-2,13.4-5.9,13.4-13.6V89.2H63.8v-3.4h26.8H104c7.8,0,10.7-5.4,13.4-13.6c2.8-8.4,2.7-16.5,0-27.2c-1.9-7.8-5.6-13.6-13.4-13.6
		L93.9,31.4z M78.8,96c2.8,0,5,2.3,5,5.1c0,2.8-2.3,5.1-5,5.1c-2.8,0-5-2.3-5-5.1C73.8,98.3,76.1,96,78.8,96z"/>
	
		<radialGradient id="path1894_00000078726185291619338500000009610938616239668382_" cx="-1742.7133" cy="93.7876" r="29.0369" gradientTransform="matrix(1.749057e-08 -0.2399 -1.0547 -3.791546e-07 162.9863 -287.7645)" gradientUnits="userSpaceOnUse">
		<stop  offset="0" style="stop-color:#B8B8B8;stop-opacity:0.498"/>
		<stop  offset="1" style="stop-color:#7F7F7F;stop-opacity:0"/>
	</radialGradient>
	
		<ellipse id="path1894" style="opacity:0.4438;fill:url(#path1894_00000078726185291619338500000009610938616239668382_);enable-background:new    ;" cx="64.1" cy="130.4" rx="35.9" ry="7"/>
</g>
<g id="layer1" inkscape:groupmode="layer" inkscape:label="Layer 1">
	
		<linearGradient id="path2682_00000115509018892358868420000005230863434757946012_" gradientUnits="userSpaceOnUse" x1="78.953" y1="2.7541" x2="79.0406" y2="32.3039" gradientTransform="matrix(1.1282 0 0 -1.1282 -21.8197 79.017)">
		<stop  offset="0" style="stop-color:#FFFFFF"/>
		<stop  offset="1" style="stop-color:#000000"/>
	</linearGradient>
	
		<path id="path2682" inkscape:r_cx="true" inkscape:r_cy="true" sodipodi:nodetypes="cccc" style="opacity:0.15;fill:none;stroke:url(#path2682_00000115509018892358868420000005230863434757946012_);stroke-width:2;stroke-linecap:square;stroke-linejoin:round;enable-background:new    ;" d="
		M36,96V22.7l62.6,35.6L36,96z"/>
	
		<radialGradient id="path3375_00000016077579508539929330000002434067042301207964_" cx="-611.6237" cy="231.4241" r="30.1483" gradientTransform="matrix(5.324342e-02 -0.8362 -2.0195 -0.1286 563.4134 -411.149)" gradientUnits="userSpaceOnUse">
		<stop  offset="0" style="stop-color:#FFFFFF"/>
		<stop  offset="1" style="stop-color:#7AD722"/>
	</radialGradient>
	
		<path id="path3375" inkscape:r_cx="true" inkscape:r_cy="true" sodipodi:nodetypes="cccc" style="fill-rule:evenodd;clip-rule:evenodd;fill:url(#path3375_00000016077579508539929330000002434067042301207964_);" d="
		M37.2,92V25.1l57.9,33.4L37.2,92z"/>
	
		<linearGradient id="path2479_00000116228635561582860200000008459048417737700251_" gradientUnits="userSpaceOnUse" x1="112.0194" y1="-96.3165" x2="110.9322" y2="-27.7973" gradientTransform="matrix(1 0 0 -1 -45.0004 30.7956)">
		<stop  offset="0" style="stop-color:#74B01A"/>
		<stop  offset="1" style="stop-color:#454744"/>
	</linearGradient>
	
		<path id="path2479" inkscape:r_cx="true" inkscape:r_cy="true" sodipodi:nodetypes="cccc" style="fill:none;stroke:url(#path2479_00000116228635561582860200000008459048417737700251_);stroke-width:1;stroke-linecap:square;stroke-linejoin:round;" d="
		M37.2,92V25.1l57.9,33.4L37.2,92z"/>
	<path id="path2481" inkscape:r_cx="true" inkscape:r_cy="true" sodipodi:nodetypes="cccccccc" class="st6" d="M38.4,27.3v62.6
		l54.3-31.3L38.4,27.3z M40.9,31.5l47,27.1l-47,27.1V31.5z"/>
	<path id="path2339" inkscape:r_cx="true" inkscape:r_cy="true" sodipodi:nodetypes="cccc" class="st7" d="M40.7,31.3v28.1
		c10.3-0.1,22-0.8,41-4.5L40.7,31.3z"/>
</g>
</svg>
