<?xml version="1.0" encoding="utf-8"?>
<!-- Generator: Adobe Illustrator 26.0.2, SVG Export Plug-In . SVG Version: 6.00 Build 0)  -->
<svg version="1.1"
	 id="svg2" inkscape:export-filename="python-logo-only.png" sodipodi:docname="python-logo-only.svg" sodipodi:version="0.32" xmlns:cc="http://creativecommons.org/ns#" xmlns:dc="http://purl.org/dc/elements/1.1/" xmlns:inkscape="http://www.inkscape.org/namespaces/inkscape" xmlns:rdf="http://www.w3.org/1999/02/22-rdf-syntax-ns#" xmlns:sodipodi="http://sodipodi.sourceforge.net/DTD/sodipodi-0.dtd" xmlns:svg="http://www.w3.org/2000/svg"
	 xmlns="http://www.w3.org/2000/svg" xmlns:xlink="http://www.w3.org/1999/xlink" x="0px" y="0px" viewBox="0 0 127.7 140.1"
	 style="enable-background:new 0 0 127.7 140.1;" xml:space="preserve">
<style type="text/css">
	.st0{fill:url(#path1948_00000137131809476121407750000015689482373966944904_);}
	.st1{fill:url(#path1950_00000008123870221791722090000002292014470236429498_);}
	.st2{opacity:0.4438;fill:url(#path1894_00000088855964171493159270000012195364479636252081_);enable-background:new    ;}
	
		.st3{opacity:0.15;fill:none;stroke:url(#path2682_00000029031294150568757360000000182428303727507595_);stroke-width:2;stroke-linecap:square;stroke-linejoin:round;enable-background:new    ;}
	.st4{fill-rule:evenodd;clip-rule:evenodd;fill:url(#path3375_00000080183019776818845340000004039149789064604075_);}
	
		.st5{fill:none;stroke:url(#path2479_00000167384451955216124370000001798300951791580593_);stroke-linecap:square;stroke-linejoin:round;}
	.st6{fill-rule:evenodd;clip-rule:evenodd;fill:#FFFFFF;}
	.st7{opacity:0.5;fill:#FFFFFF;enable-background:new    ;}
</style>
<g>
	
		<sodipodi:namedview  bordercolor="#666666" borderopacity="1.0" gridtolerance="10.0" guidetolerance="10.0" height="40mm" id="base" inkscape:current-layer="svg2" inkscape:cx="91.558698" inkscape:cy="47.9926" inkscape:deskcolor="#d1d1d1" inkscape:document-units="pt" inkscape:pagecheckerboard="0" inkscape:pageopacity="0.0" inkscape:pageshadow="2" inkscape:showpageshadow="2" inkscape:window-height="2080" inkscape:window-maximized="0" inkscape:window-width="1976" inkscape:window-x="1092" inkscape:window-y="72" inkscape:zoom="2.1461642" objecttolerance="10.0" pagecolor="#ffffff" showgrid="false" units="mm" width="210mm">
		</sodipodi:namedview>
	
		<linearGradient id="path1948_00000139983765516140201760000006350268643929298075_" gradientUnits="userSpaceOnUse" x1="412.975" y1="1319.2766" x2="521.9913" y2="1413.0706" gradientTransform="matrix(0.5625 0 0 0.568 -226.7308 -743.5076)">
		<stop  offset="0" style="stop-color:#5A9FD4"/>
		<stop  offset="1" style="stop-color:#306998"/>
	</linearGradient>
	<path id="path1948" style="fill:url(#path1948_00000139983765516140201760000006350268643929298075_);" d="M63.2,2.7
		c-4.6,0-9,0.4-12.8,1.1C39,5.8,37,10,37,17.7v10.2h26.8v3.4H37H26.9c-7.8,0-14.6,4.7-16.8,13.6c-2.5,10.2-2.6,16.6,0,27.2
		C12,80,16.6,85.7,24.4,85.7h9.2V73.5c0-8.8,7.7-16.7,16.8-16.7h26.8c7.5,0,13.4-6.1,13.4-13.6V17.7c0-7.3-6.1-12.7-13.4-13.9
		C72.5,3,67.8,2.7,63.2,2.7z M48.7,10.9c2.8,0,5,2.3,5,5.1s-2.3,5.1-5,5.1c-2.8,0-5-2.3-5-5.1C43.6,13.2,45.9,10.9,48.7,10.9z"/>
	
		<linearGradient id="path1950_00000118380244281132475880000017796475122625590432_" gradientUnits="userSpaceOnUse" x1="564.1183" y1="1469.8922" x2="525.1887" y2="1414.8135" gradientTransform="matrix(0.5625 0 0 0.568 -226.7308 -743.5076)">
		<stop  offset="0" style="stop-color:#FFD43B"/>
		<stop  offset="1" style="stop-color:#FFE873"/>
	</linearGradient>
	<path id="path1950" style="fill:url(#path1950_00000118380244281132475880000017796475122625590432_);" d="M93.9,31.4v11.9
		c0,9.2-7.8,17-16.8,17H50.4C43,60.3,37,66.5,37,73.9v25.5c0,7.3,6.3,11.5,13.4,13.6c8.5,2.5,16.6,2.9,26.8,0
		c6.8-2,13.4-5.9,13.4-13.6V89.2H63.8v-3.4h26.8H104c7.8,0,10.7-5.4,13.4-13.6c2.8-8.4,2.7-16.5,0-27.2c-1.9-7.8-5.6-13.6-13.4-13.6
		L93.9,31.4z M78.8,96c2.8,0,5,2.3,5,5.1c0,2.8-2.3,5.1-5,5.1c-2.8,0-5-2.3-5-5.1S76.1,96,78.8,96z"/>
	
		<radialGradient id="path1894_00000065754953345120802700000017265532333142015632_" cx="-3438.8225" cy="618.048" r="29.0221" gradientTransform="matrix(1.749057e-08 -0.2399 1.0547 3.791546e-07 -587.7552 -694.6614)" gradientUnits="userSpaceOnUse">
		<stop  offset="0" style="stop-color:#B8B8B8;stop-opacity:0.498"/>
		<stop  offset="1" style="stop-color:#7F7F7F;stop-opacity:0"/>
	</radialGradient>
	
		<ellipse id="path1894" style="opacity:0.4438;fill:url(#path1894_00000065754953345120802700000017265532333142015632_);enable-background:new    ;" cx="64.1" cy="130.4" rx="35.9" ry="7"/>
</g>
<g id="layer1" inkscape:groupmode="layer" inkscape:label="Layer 1">
	
		<linearGradient id="path2682_00000101824595118767553880000002206805839811419064_" gradientUnits="userSpaceOnUse" x1="52.4234" y1="799.2506" x2="52.511" y2="769.7008" gradientTransform="matrix(1.1282 0 0 1.1282 8.0509 -825.8049)">
		<stop  offset="0" style="stop-color:#FFFFFF"/>
		<stop  offset="1" style="stop-color:#000000"/>
	</linearGradient>
	
		<path id="path2682" inkscape:r_cx="true" inkscape:r_cy="true" sodipodi:nodetypes="cccc" style="opacity:0.15;fill:none;stroke:url(#path2682_00000101824595118767553880000002206805839811419064_);stroke-width:2;stroke-linecap:square;stroke-linejoin:round;enable-background:new    ;" d="
		M36,96V22.7l62.6,35.6L36,96z"/>
	
		<radialGradient id="path3375_00000031166621446565098690000008071767325955960477_" cx="-1245.0127" cy="385.3969" r="30.1483" gradientTransform="matrix(5.324342e-02 -0.8362 2.0195 0.1286 -648.5329 -1020.112)" gradientUnits="userSpaceOnUse">
		<stop  offset="0" style="stop-color:#FFFFFF"/>
		<stop  offset="1" style="stop-color:#0FB803"/>
	</radialGradient>
	
		<path id="path3375" inkscape:r_cx="true" inkscape:r_cy="true" sodipodi:nodetypes="cccc" style="fill-rule:evenodd;clip-rule:evenodd;fill:url(#path3375_00000031166621446565098690000008071767325955960477_);" d="
		M37.2,92V25.1l57.9,33.4L37.2,92z"/>
	
		<linearGradient id="path2479_00000112601301004292926500000017130671419072828303_" gradientUnits="userSpaceOnUse" x1="111.9733" y1="938.207" x2="110.8861" y2="869.6879" gradientTransform="matrix(1 0 0 1 -45.0004 -811.0942)">
		<stop  offset="0" style="stop-color:#496A49"/>
		<stop  offset="1" style="stop-color:#007D26"/>
	</linearGradient>
	
		<path id="path2479" inkscape:r_cx="true" inkscape:r_cy="true" sodipodi:nodetypes="cccc" style="fill:none;stroke:url(#path2479_00000112601301004292926500000017130671419072828303_);stroke-linecap:square;stroke-linejoin:round;" d="
		M37.2,92V25.1l57.9,33.4L37.2,92z"/>
	<path id="path2481" inkscape:r_cx="true" inkscape:r_cy="true" sodipodi:nodetypes="cccccccc" class="st6" d="M38.4,27.3v62.6
		l54.3-31.3L38.4,27.3z M40.9,31.5l47,27.1l-47,27.1V31.5z"/>
	<path id="path2339" inkscape:r_cx="true" inkscape:r_cy="true" sodipodi:nodetypes="cccc" class="st7" d="M40.7,31.3v28.1
		c10.3-0.1,22-0.8,41-4.5L40.7,31.3z"/>
</g>
</svg>
