<?xml version="1.0" encoding="utf-8"?>
<!-- Generator: Adobe Illustrator 26.0.2, SVG Export Plug-In . SVG Version: 6.00 Build 0)  -->
<svg version="1.1"
	 id="svg97" xmlns:cc="http://creativecommons.org/ns#" xmlns:dc="http://purl.org/dc/elements/1.1/" xmlns:inkscape="http://www.inkscape.org/namespaces/inkscape" xmlns:rdf="http://www.w3.org/1999/02/22-rdf-syntax-ns#" xmlns:sodipodi="http://sodipodi.sourceforge.net/DTD/sodipodi-0.dtd" xmlns:svg="http://www.w3.org/2000/svg"
	 xmlns="http://www.w3.org/2000/svg" xmlns:xlink="http://www.w3.org/1999/xlink" x="0px" y="0px" viewBox="0 0 48 48"
	 style="enable-background:new 0 0 48 48;" xml:space="preserve">
<style type="text/css">
	.st0{opacity:0.4021;fill:url(#rect6709_00000062154613590259704130000007179164257345233324_);enable-background:new    ;}
	.st1{opacity:0.4021;fill:url(#path6711_00000086671677783827324320000009582919438887074951_);enable-background:new    ;}
	.st2{opacity:0.4021;fill:url(#path6713_00000117667139102819188100000005316078680785734069_);enable-background:new    ;}
	
		.st3{fill:url(#path2375_00000152266579892427867780000010243480539569227417_);stroke:#5A5A5A;stroke-width:0.9949;stroke-linecap:round;stroke-linejoin:round;}
	.st4{opacity:0.1136;fill:#729FCF;stroke:#000000;stroke-linecap:round;stroke-linejoin:round;enable-background:new    ;}
	.st5{fill:url(#path2380_00000135684316136197948230000011104378909021768630_);}
	.st6{fill:#FFFFFF;fill-opacity:0.5803;}
	.st7{opacity:0.392;fill:url(#path13840_00000018951594663679839970000017421433058511018629_);enable-background:new    ;}
	
		.st8{fill:url(#path2401_00000138537562880139044580000004818427753209517238_);stroke:#3465A4;stroke-width:1.0042;stroke-linejoin:round;}
	.st9{fill-rule:evenodd;clip-rule:evenodd;fill:url(#path323_00000176759982760452881900000001958943447907440004_);}
	
		.st10{opacity:0.5227;fill:none;stroke:url(#path324_00000000939716143206593550000003617564626027555732_);stroke-width:1.0042;stroke-linecap:round;enable-background:new    ;}
	.st11{fill:url(#path1948_00000074406133269532865270000010197907921389133451_);}
	.st12{fill:url(#path1950_00000170998927706568189440000003861497815912217999_);}
	
		.st13{fill:url(#path2375_00000072980003520803338200000010677699935171419828_);stroke:#5A5A5A;stroke-width:0.9949;stroke-linecap:round;stroke-linejoin:round;}
	.st14{fill:url(#path2380_00000057106179753908682210000009303668913381300613_);}
	.st15{fill:url(#path2380_00000009557267154092277610000004843017341629764784_);}
	.st16{opacity:0.392;fill:url(#path13840_00000014628725748552999400000015907291818394126008_);enable-background:new    ;}
	
		.st17{fill:url(#path2401_00000096025203805108025450000015820587562020883641_);stroke:#3465A4;stroke-width:1.0042;stroke-linejoin:round;}
	.st18{fill-rule:evenodd;clip-rule:evenodd;fill:url(#path323_00000005968361303073710100000008443877144258980492_);}
	
		.st19{opacity:0.5227;fill:none;stroke:url(#path324_00000041291121779483308160000001215518284061130375_);stroke-width:1.0042;stroke-linecap:round;enable-background:new    ;}
</style>
<defs>
	
		<inkscape:perspective  id="perspective75" inkscape:persp3d-origin="24 : 16 : 1" inkscape:vp_x="0 : 24 : 1" inkscape:vp_y="0 : 1000 : 0" inkscape:vp_z="48 : 24 : 1" sodipodi:type="inkscape:persp3d">
		</inkscape:perspective>
</defs>
<sodipodi:namedview  bordercolor="#666666" borderopacity="1.0" id="base" inkscape:current-layer="layer3" inkscape:cx="8.8898314" inkscape:cy="26.16018" inkscape:document-units="px" inkscape:grid-bbox="true" inkscape:pageopacity="0.0" inkscape:pageshadow="2" inkscape:showpageshadow="false" inkscape:window-height="818" inkscape:window-width="1027" inkscape:window-x="271" inkscape:window-y="30" inkscape:zoom="10.54135" pagecolor="#ffffff" showgrid="true">
	</sodipodi:namedview>
<g id="layer1" inkscape:groupmode="layer" inkscape:label="Folder">
</g>
<g id="layer3" inkscape:groupmode="layer" inkscape:label="Open">
	<g id="g6707" transform="matrix(2.262383e-2,0,0,2.086758e-2,43.38343,36.36962)">
		
			<linearGradient id="rect6709_00000075147712493064575440000013234546125168337058_" gradientUnits="userSpaceOnUse" x1="-725493.3125" y1="-1260.8938" x2="-725493.3125" y2="-1234.6786" gradientTransform="matrix(1.420037e-03 0 0 8.577202e-04 -25128.1074 -38133.3125)">
			<stop  offset="0" style="stop-color:#000000;stop-opacity:0"/>
			<stop  offset="0.5" style="stop-color:#000000"/>
			<stop  offset="1" style="stop-color:#000000;stop-opacity:0"/>
		</linearGradient>
		
			<rect id="rect6709" x="-1468.2" y="-221.4" style="opacity:0.4021;fill:url(#rect6709_00000075147712493064575440000013234546125168337058_);enable-background:new    ;" width="1158.7" height="413.7"/>
		
			<radialGradient id="path6711_00000040534766922602704730000013214921800339813815_" cx="-160.0567" cy="-14.4964" r="3.8766" gradientTransform="matrix(1.420037e-03 0 0 8.577202e-04 -25127.5605 -38133.3125)" gradientUnits="userSpaceOnUse">
			<stop  offset="0" style="stop-color:#000000"/>
			<stop  offset="1" style="stop-color:#000000;stop-opacity:0"/>
		</radialGradient>
		
			<path id="path6711" sodipodi:nodetypes="cccc" style="opacity:0.4021;fill:url(#path6711_00000040534766922602704730000013214921800339813815_);enable-background:new    ;" d="
			M-309.4-221.4v413.7c123.6,0.8,298.8-92.7,298.8-206.9C-10.7-128.7-148.6-221.4-309.4-221.4z"/>
		
			<radialGradient id="path6713_00000006678213139050593710000014170505251060198047_" cx="-1617.5571" cy="-14.4964" r="3.8766" gradientTransform="matrix(-1.420037e-03 0 0 8.577202e-04 -24918.4277 -38133.3125)" gradientUnits="userSpaceOnUse">
			<stop  offset="0" style="stop-color:#000000"/>
			<stop  offset="1" style="stop-color:#000000;stop-opacity:0"/>
		</radialGradient>
		
			<path id="path6713" sodipodi:nodetypes="cccc" style="opacity:0.4021;fill:url(#path6713_00000006678213139050593710000014170505251060198047_);enable-background:new    ;" d="
			M-1468.2-221.4v413.7c-123.6,0.8-298.8-92.7-298.8-206.9S-1629.1-221.4-1468.2-221.4z"/>
	</g>
	
		<radialGradient id="path2375_00000095305575447989613070000006581281487370003355_" cx="-65.5429" cy="825.0849" r="27.9045" gradientTransform="matrix(1.0202 0 0.1036 1.0063 10.93 -794.2883)" gradientUnits="userSpaceOnUse">
		<stop  offset="0" style="stop-color:#A0A0A0"/>
		<stop  offset="1" style="stop-color:#A8A8A8"/>
	</radialGradient>
	
		<path id="path2375" inkscape:r_cx="true" inkscape:r_cy="true" sodipodi:nodetypes="ccccccssssccc" style="fill:url(#path2375_00000095305575447989613070000006581281487370003355_);stroke:#5A5A5A;stroke-width:0.9949;stroke-linecap:round;stroke-linejoin:round;" d="
		M7.1,36.5c0,0.3,0.4,0.7,0.8,0.7H35c0.3,0,0.7-0.3,0.6-0.7l-2.3-23.6c0-0.3-0.4-0.7-0.8-0.7H21.4c-0.5,0-1-0.3-1.2-0.9l-1-2.9
		c-0.2-0.4-0.4-0.6-1.1-0.6h-13c-0.3,0-0.7,0.3-0.6,0.7L7.1,36.5z"/>
	<path id="path13160" sodipodi:nodetypes="cc" class="st4" d="M7.7,35.4h25.9"/>
	<path id="path13139" sodipodi:nodetypes="cc" class="st4" d="M7.7,33.7h25.9"/>
	
		<linearGradient id="path2380_00000043425506030909509700000014128457716966705586_" gradientUnits="userSpaceOnUse" x1="-223.7089" y1="1168.0364" x2="-221.1602" y2="1197.3596" gradientTransform="matrix(1.4757 0 6.969195e-02 0.692 259.6229 -794.3439)">
		<stop  offset="0" style="stop-color:#FFFFFF;stop-opacity:0.7006"/>
		<stop  offset="1" style="stop-color:#FFFFFF;stop-opacity:0"/>
	</linearGradient>
	
		<path id="path2380" inkscape:r_cx="true" inkscape:r_cy="true" sodipodi:nodetypes="ccccccsscsscccc" style="fill:url(#path2380_00000043425506030909509700000014128457716966705586_);" d="
		M8.4,36.4c0,0.3-0.2,0.4-0.4,0.3l0,0c-0.3-0.1-0.5-0.3-0.5-0.5L4.9,8.7c0-0.3,0.2-0.4,0.4-0.4l12.9-0.1c0.4,0,0.6,0.1,0.8,0.4
		c0,0,1,2.8,1.1,3.2l-1.4-2.6c-0.3-0.4-0.5-0.3-0.9-0.3H6.4c-0.3,0-0.4,0.2-0.4,0.4L8.4,36.4L8.4,36.4z"/>
	<path id="path13113" sodipodi:nodetypes="cc" class="st4" d="M6,18.1h26.9"/>
	<path id="path13115" sodipodi:nodetypes="cc" class="st4" d="M5.6,13h26.6"/>
	
		<g id="g2381" transform="matrix(1.034503,0,0.104528,1.035221,-9.922058,2.395183)" inkscape:export-filename="/home/jimmac/ximian_art/icons/nautilus/suse93/gnome-fs-directory.png" inkscape:export-xdpi="74.800003" inkscape:export-ydpi="74.800003" inkscape:r_cx="true" inkscape:r_cy="true">
		<path id="path2382" inkscape:r_cx="true" inkscape:r_cy="true" sodipodi:nodetypes="cscscs" class="st6" d="M40.2,10.4
			c0-0.4,0-0.6-0.3-0.6H29c-0.3,0-0.3-0.1,0,0c0.3,0.2,1.1,0.6,1.9,0.6H40.2z"/>
	</g>
	<path id="path13121" sodipodi:nodetypes="cc" class="st4" d="M7.7,32h25.9"/>
	<path id="path13119" sodipodi:nodetypes="cc" class="st4" d="M7.4,30.3h26"/>
	<path id="path13135" sodipodi:nodetypes="cc" class="st4" d="M7.1,28.5h26.1"/>
	<path id="path13137" sodipodi:nodetypes="cc" class="st4" d="M7,26.8h26.1"/>
	<path id="path13143" sodipodi:nodetypes="cc" class="st4" d="M6.9,25.1H33"/>
	<path id="path13133" sodipodi:nodetypes="cc" class="st4" d="M6.6,23.3h26.2"/>
	<path id="path13117" sodipodi:nodetypes="cc" class="st4" d="M6.5,21.6h26.2"/>
	<path id="path13125" sodipodi:nodetypes="cc" class="st4" d="M6.4,19.9h26.2"/>
	
		<linearGradient id="path13840_00000005962657583701136600000012951284439958057876_" gradientUnits="userSpaceOnUse" x1="21.6928" y1="829.6342" x2="19.5303" y2="809.9556" gradientTransform="matrix(1 0 0 1 0 -794)">
		<stop  offset="0" style="stop-color:#000000"/>
		<stop  offset="1" style="stop-color:#000000;stop-opacity:0"/>
	</linearGradient>
	
		<path id="path13840" sodipodi:nodetypes="cccsc" style="opacity:0.392;fill:url(#path13840_00000005962657583701136600000012951284439958057876_);enable-background:new    ;" d="
		M32.9,15.2l2.2,21.4L8.3,36.7L6.7,15.2C6.7,15.2,33,15.2,32.9,15.2z"/>
	
		<linearGradient id="path2401_00000147199997086771783000000008538625089788853908_" gradientUnits="userSpaceOnUse" x1="-19.6851" y1="810.5416" x2="-19.7808" y2="806.2707" gradientTransform="matrix(0.9888 0 0 1.0252 45.2385 -795.4501)">
		<stop  offset="0" style="stop-color:#6194CB"/>
		<stop  offset="1" style="stop-color:#729FCF"/>
	</linearGradient>
	
		<path id="path2401" inkscape:export-filename="/home/jimmac/ximian_art/icons/nautilus/suse93/gnome-fs-directory.png" inkscape:export-xdpi="74.800003" inkscape:export-ydpi="74.800003" inkscape:r_cx="true" inkscape:r_cy="true" sodipodi:nodetypes="cccsscccscc" style="fill:url(#path2401_00000147199997086771783000000008538625089788853908_);stroke:#3465A4;stroke-width:1.0042;stroke-linejoin:round;" d="
		M8,36.8c0.1,0.2,0.3,0.3,0.5,0.3H37c0.2,0,0.4-0.1,0.6-0.3c0.4-0.3,0.5-0.5,0.8-0.9c2.1-3.2,4.9-16.7,4.9-16.7
		c0.1-0.2-0.1-0.3-0.3-0.3H13.1c-0.3,0-1.4,14-4.2,16.7L8,36.8L8,36.8L8,36.8z"/>
	
		<linearGradient id="path323_00000026854914652367471560000009894698794533819777_" gradientUnits="userSpaceOnUse" x1="-174.7349" y1="1244.5411" x2="-167.974" y2="1257.3235" gradientTransform="matrix(1.5181 0 0 0.6533 286.1735 -791.6604)">
		<stop  offset="0" style="stop-color:#FFFFFF;stop-opacity:0.134"/>
		<stop  offset="1" style="stop-color:#FFFFFF;stop-opacity:5.154639e-02"/>
	</linearGradient>
	
		<path id="path323" inkscape:r_cx="true" inkscape:r_cy="true" sodipodi:nodetypes="ccccc" style="fill-rule:evenodd;clip-rule:evenodd;fill:url(#path323_00000026854914652367471560000009894698794533819777_);" d="
		M14.3,20.4c-0.7,4.3-1.3,7.8-2.3,11.8c2.1-0.6,6.1-2.8,14.6-2.8s14.3-8,15.1-9.1L14.3,20.4z"/>
	
		<linearGradient id="path324_00000176004985779671718910000000151694049470685357_" gradientUnits="userSpaceOnUse" x1="-139.2462" y1="1154.5869" x2="-138.9758" y2="1174.5681" gradientTransform="matrix(1.4056 0 0 0.7056 221.34 -794.1246)">
		<stop  offset="0" style="stop-color:#FFFFFF"/>
		<stop  offset="1" style="stop-color:#FFFFFF;stop-opacity:0"/>
	</linearGradient>
	
		<path id="path324" inkscape:r_cx="true" inkscape:r_cy="true" sodipodi:nodetypes="cccsc" style="opacity:0.5227;fill:none;stroke:url(#path324_00000176004985779671718910000000151694049470685357_);stroke-width:1.0042;stroke-linecap:round;enable-background:new    ;" d="
		M42.3,20H13.9c0,0-1.8,13.9-4.1,15.8c6.9,0,27,0,27,0C38.4,35.8,41,24.8,42.3,20z"/>
	<path id="path13123" sodipodi:nodetypes="cc" class="st4" d="M5.9,16.4h26.6"/>
	<path id="path13127" sodipodi:nodetypes="cc" class="st4" d="M5.7,14.7h26.8"/>
	<path id="path13145" sodipodi:nodetypes="cc" class="st4" d="M5.1,9.5h12.8"/>
	<path id="path13147" sodipodi:nodetypes="cc" class="st4" d="M5.3,11.2h13.2"/>
</g>
<g>
	
		<linearGradient id="path1948_00000004535556791124200520000012345996747915978377_" gradientUnits="userSpaceOnUse" x1="459.5431" y1="1421.1605" x2="490.814" y2="1448.0649" gradientTransform="matrix(0.5625 0 0 0.568 -253.8549 -805.7148)">
		<stop  offset="0" style="stop-color:#5A9FD4"/>
		<stop  offset="1" style="stop-color:#306998"/>
	</linearGradient>
	<path id="path1948" style="fill:url(#path1948_00000004535556791124200520000012345996747915978377_);" d="M21.1,0.7
		c-1.3,0-2.6,0.1-3.7,0.3c-3.2,0.6-3.9,1.8-3.9,4v2.9h7.8v1h-7.7h-2.9c-2.2,0-4.2,1.3-4.8,3.9c-0.7,2.9-0.8,4.8,0,7.8
		c0.6,2.2,1.9,3.9,4.1,3.9h2.7v-3.6c0-2.6,2.2-4.8,4.8-4.8h7.7c2.1,0,3.9-1.8,3.9-3.9V5c0-2.1-1.8-3.7-3.9-4
		C23.9,0.8,22.4,0.7,21.1,0.7z M17,3c0.8,0,1.4,0.7,1.4,1.4S17.7,5.9,17,5.9s-1.4-0.7-1.4-1.4S16.2,3,17,3z"/>
	
		<linearGradient id="path1950_00000057853104737978833780000011579811825313562264_" gradientUnits="userSpaceOnUse" x1="502.8171" y1="1464.4518" x2="491.6502" y2="1448.6527" gradientTransform="matrix(0.5625 0 0 0.568 -253.8549 -805.7148)">
		<stop  offset="0" style="stop-color:#FFD43B"/>
		<stop  offset="1" style="stop-color:#FFE873"/>
	</linearGradient>
	<path id="path1950" style="fill:url(#path1950_00000057853104737978833780000011579811825313562264_);" d="M30,8.9v3.4
		c0,2.7-2.2,4.9-4.8,4.9h-7.7c-2.1,0-3.9,1.8-3.9,3.9v7.3c0,2.1,1.8,3.3,3.9,3.9c2.4,0.7,4.8,0.9,7.7,0c1.9-0.6,3.9-1.7,3.9-3.9
		v-2.9h-7.8v-1H29h3.9c2.2,0,3.1-1.6,3.9-3.9c0.8-2.4,0.8-4.8,0-7.8C36.2,10.7,35.2,9,32.9,9L30,8.9z M25.6,27.4
		c0.8,0,1.4,0.7,1.4,1.4c0,0.8-0.7,1.4-1.4,1.4c-0.8,0-1.4-0.7-1.4-1.4C24.2,28.1,24.9,27.4,25.6,27.4z"/>
</g>
<g id="layer2" inkscape:groupmode="layer" inkscape:label="pattern">
</g>
<g id="layer3_00000027579359398548912940000015340237725723027112_" inkscape:groupmode="layer" inkscape:label="Open">
	
		<radialGradient id="path2375_00000181776602238525215640000004293789145708076219_" cx="-65.6164" cy="826.2231" r="5.8262" gradientTransform="matrix(1.0202 0 0.1036 1.0063 10.93 -794.2883)" gradientUnits="userSpaceOnUse">
		<stop  offset="0" style="stop-color:#A0A0A0"/>
		<stop  offset="1" style="stop-color:#A8A8A8"/>
	</radialGradient>
	
		<path id="path2375_00000025438214482864614040000017547893732071059610_" inkscape:r_cx="true" inkscape:r_cy="true" sodipodi:nodetypes="ccccccssssccc" style="fill:url(#path2375_00000181776602238525215640000004293789145708076219_);stroke:#5A5A5A;stroke-width:0.9949;stroke-linecap:round;stroke-linejoin:round;" d="
		M7,36.4c0,0.3,0.4,0.7,0.8,0.7h27.1c0.3,0,0.7-0.3,0.6-0.7"/>
	<path id="path13160_00000012432132175205935890000003353639347882075560_" sodipodi:nodetypes="cc" class="st4" d="M33.7,35.4"/>
	<path id="path13160_00000047040219410179531320000007503190681019639690_" sodipodi:nodetypes="cc" class="st4" d="M7.7,35.4"/>
	
		<linearGradient id="path2380_00000129165068481292818640000017115447620805004451_" gradientUnits="userSpaceOnUse" x1="-227.5415" y1="1200.1217" x2="-227.5415" y2="1200.1217" gradientTransform="matrix(1.4757 0 6.969195e-02 0.692 259.6229 -794.3439)">
		<stop  offset="0" style="stop-color:#FFFFFF;stop-opacity:0.7006"/>
		<stop  offset="1" style="stop-color:#FFFFFF;stop-opacity:0"/>
	</linearGradient>
	
		<path id="path2380_00000168818723487900355290000005706954532633798805_" inkscape:r_cx="true" inkscape:r_cy="true" sodipodi:nodetypes="ccccccsscsscccc" style="fill:url(#path2380_00000129165068481292818640000017115447620805004451_);" d="
		M7.5,36.1"/>
	
		<linearGradient id="path2380_00000083803128503443876430000003392985600803654042_" gradientUnits="userSpaceOnUse" x1="-227.0516" y1="1200.5563" x2="-227.0181" y2="1200.9407" gradientTransform="matrix(1.4757 0 6.969195e-02 0.692 259.6229 -794.3439)">
		<stop  offset="0" style="stop-color:#FFFFFF;stop-opacity:0.7006"/>
		<stop  offset="1" style="stop-color:#FFFFFF;stop-opacity:0"/>
	</linearGradient>
	
		<path id="path2380_00000013897625035803131110000013050325988462552720_" inkscape:r_cx="true" inkscape:r_cy="true" sodipodi:nodetypes="ccccccsscsscccc" style="fill:url(#path2380_00000083803128503443876430000003392985600803654042_);" d="
		M8.5,36.4L8.5,36.4c-0.1,0.2-0.3,0.3-0.5,0.3l0,0"/>
	<path id="path13113_00000183225929493692934060000016445352016720877480_" sodipodi:nodetypes="cc" class="st4" d="M33,18.1"/>
	<path id="path13119_00000090987187271010085410000004033366961824782252_" sodipodi:nodetypes="cc" class="st4" d="M33.4,30.3"/>
	<path id="path13135_00000163786954140997311840000005339325355298886808_" sodipodi:nodetypes="cc" class="st4" d="M33.3,28.5"/>
	<path id="path13137_00000030470759913389815380000017698638959654626195_" sodipodi:nodetypes="cc" class="st4" d="M33.1,26.8"/>
	<path id="path13143_00000087386510673416215160000003724051804176987572_" sodipodi:nodetypes="cc" class="st4" d="M33,25.1"/>
	<path id="path13133_00000145045654255323155160000006298903543322510249_" sodipodi:nodetypes="cc" class="st4" d="M32.8,23.3"/>
	<path id="path13117_00000077322114482772047560000007781631333294176957_" sodipodi:nodetypes="cc" class="st4" d="M32.7,21.6"/>
	<path id="path13125_00000145746410086227350180000008860052235394095271_" sodipodi:nodetypes="cc" class="st4" d="M32.5,19.9"/>
	
		<linearGradient id="path13840_00000008120316913284150150000008381787407901436334_" gradientUnits="userSpaceOnUse" x1="21.8753" y1="831.7029" x2="21.624" y2="829.4161" gradientTransform="matrix(1 0 0 1 0 -794)">
		<stop  offset="0" style="stop-color:#000000"/>
		<stop  offset="1" style="stop-color:#000000;stop-opacity:0"/>
	</linearGradient>
	
		<path id="path13840_00000031166141547410521180000008234366370092560023_" sodipodi:nodetypes="cccsc" style="opacity:0.392;fill:url(#path13840_00000008120316913284150150000008381787407901436334_);enable-background:new    ;" d="
		M35.2,36.5L8.3,36.7"/>
	
		<linearGradient id="path2401_00000022544054784253082470000005538662658049869447_" gradientUnits="userSpaceOnUse" x1="-19.6852" y1="810.5323" x2="-19.7809" y2="806.2615" gradientTransform="matrix(0.9888 0 0 1.0252 45.2385 -795.4501)">
		<stop  offset="0" style="stop-color:#6194CB"/>
		<stop  offset="1" style="stop-color:#729FCF"/>
	</linearGradient>
	
		<path id="path2401_00000088095255678133803930000002702930484862394551_" inkscape:export-filename="/home/jimmac/ximian_art/icons/nautilus/suse93/gnome-fs-directory.png" inkscape:export-xdpi="74.800003" inkscape:export-ydpi="74.800003" inkscape:r_cx="true" inkscape:r_cy="true" sodipodi:nodetypes="cccsscccscc" style="fill:url(#path2401_00000022544054784253082470000005538662658049869447_);stroke:#3465A4;stroke-width:1.0042;stroke-linejoin:round;" d="
		M8,36.8c0.1,0.2,0.3,0.3,0.5,0.3H37c0.2,0,0.4-0.1,0.6-0.3c0.4-0.3,0.5-0.5,0.8-0.9c2.1-3.2,4.9-16.7,4.9-16.7
		c0.1-0.2-0.1-0.3-0.3-0.3H13.1c-0.3,0-1.4,14-4.2,16.7L8,36.8L8,36.8L8,36.8z"/>
	
		<linearGradient id="path323_00000005228941024540860900000000724766983602990014_" gradientUnits="userSpaceOnUse" x1="-174.742" y1="1244.5278" x2="-167.9811" y2="1257.3101" gradientTransform="matrix(1.5181 0 0 0.6533 286.1735 -791.6604)">
		<stop  offset="0" style="stop-color:#FFFFFF;stop-opacity:0.134"/>
		<stop  offset="1" style="stop-color:#FFFFFF;stop-opacity:5.154639e-02"/>
	</linearGradient>
	
		<path id="path323_00000095326447649291367160000016919694945872971709_" inkscape:r_cx="true" inkscape:r_cy="true" sodipodi:nodetypes="ccccc" style="fill-rule:evenodd;clip-rule:evenodd;fill:url(#path323_00000005228941024540860900000000724766983602990014_);" d="
		M14.3,20.4c-0.7,4.3-1.3,7.8-2.3,11.8c2.1-0.6,6.1-2.8,14.6-2.8s14.3-8.1,15.1-9.1L14.3,20.4z"/>
	
		<linearGradient id="path324_00000003063044336111758170000014841011516786786464_" gradientUnits="userSpaceOnUse" x1="-139.2464" y1="1154.5736" x2="-138.976" y2="1174.5548" gradientTransform="matrix(1.4056 0 0 0.7056 221.34 -794.1246)">
		<stop  offset="0" style="stop-color:#FFFFFF"/>
		<stop  offset="1" style="stop-color:#FFFFFF;stop-opacity:0"/>
	</linearGradient>
	
		<path id="path324_00000115511045441160827460000003641641019032858001_" inkscape:r_cx="true" inkscape:r_cy="true" sodipodi:nodetypes="cccsc" style="opacity:0.5227;fill:none;stroke:url(#path324_00000003063044336111758170000014841011516786786464_);stroke-width:1.0042;stroke-linecap:round;enable-background:new    ;" d="
		M42.3,20H13.9c0,0-1.8,13.9-4.1,15.8c6.9,0,27,0,27,0C38.4,35.8,41,24.8,42.3,20z"/>
</g>
</svg>
